<?xml version="1.0" encoding="utf-8"?>
<!-- Generator: Adobe Illustrator 22.1.0, SVG Export Plug-In . SVG Version: 6.00 Build 0)  -->
<svg version="1.1" id="Layer_1" xmlns="http://www.w3.org/2000/svg" xmlns:xlink="http://www.w3.org/1999/xlink" x="0px" y="0px"
	 width="32px" height="32px" viewBox="0 0 32 32" enable-background="new 0 0 32 32" xml:space="preserve">
<g>
	<path fill="#E08C37" d="M22.032,14.145c-0.015-0.559-0.036-1.119-0.092-1.674c-0.126-1.246-0.868-2.105-2.094-2.338
		C19.2,10.01,18.53,9.991,17.871,9.979c-1.248-0.023-2.497-0.02-3.746-0.001c-0.622,0.009-1.251,0.033-1.864,0.129
		c-1.065,0.166-1.794,0.776-2.088,1.833c-0.094,0.339-0.15,0.698-0.158,1.049c-0.032,1.334-0.051,2.668-0.047,4.003
		c0.003,0.849,0.022,1.701,0.096,2.546c0.111,1.267,0.882,2.131,2.13,2.358c0.641,0.116,1.305,0.131,1.959,0.142
		c1.232,0.021,2.465,0.015,3.698,0.002c0.564-0.006,1.129-0.038,1.69-0.093c0.525-0.052,1.016-0.223,1.439-0.559
		c0.685-0.544,0.949-1.294,0.99-2.126c0.055-1.123,0.035-2.247,0.065-3.371c-0.01,0,0.01,0,0-0.001
		C22.035,15.307,22.047,14.726,22.032,14.145z M15.996,19.791c-2.112,0-3.781-1.687-3.78-3.82c0.001-2.079,1.702-3.749,3.82-3.747
		c2.068,0.001,3.748,1.698,3.748,3.787C19.784,18.111,18.099,19.791,15.996,19.791z M19.932,12.965
		c-0.49-0.003-0.895-0.41-0.89-0.896c0.004-0.487,0.397-0.877,0.884-0.879c0.503-0.003,0.89,0.38,0.891,0.88
		C20.818,12.566,20.42,12.968,19.932,12.965z"/>
	<path fill="#E08C37" d="M16.002,13.552c-1.348,0.001-2.455,1.106-2.456,2.453c-0.001,1.346,1.107,2.455,2.453,2.457
		c1.346,0.001,2.455-1.107,2.456-2.453C18.456,14.663,17.347,13.552,16.002,13.552z"/>
	<path fill="#E08C37" d="M16,1.375C7.923,1.375,1.375,7.923,1.375,16S7.923,30.625,16,30.625S30.625,24.077,30.625,16
		S24.077,1.375,16,1.375z M23.354,18.336c-0.008,0.768-0.034,1.539-0.289,2.278c-0.494,1.432-1.499,2.303-2.974,2.583
		c-0.666,0.127-1.357,0.156-2.037,0.166c-1.458,0.022-2.917,0.013-4.375-0.002c-0.768-0.008-1.539-0.034-2.279-0.286
		c-1.435-0.491-2.305-1.496-2.59-2.968c-0.128-0.665-0.156-1.357-0.167-2.037c-0.022-1.463-0.014-2.927,0.002-4.391
		C8.655,12.91,8.68,12.139,8.935,11.4c0.494-1.432,1.5-2.302,2.974-2.583c0.666-0.127,1.357-0.141,2.037-0.167
		c0.688-0.027,1.377-0.028,2.066-0.028c0-0.007,0,0.008,0,0.001c0.99,0.018,1.98,0.027,2.969,0.055
		c0.859,0.024,1.692,0.177,2.438,0.633c0.979,0.597,1.577,1.478,1.77,2.596c0.116,0.669,0.155,1.357,0.166,2.038
		C23.378,15.408,23.37,16.873,23.354,18.336z"/>
</g>
</svg>
