<?xml version="1.0" encoding="utf-8"?>
<!-- Generator: Adobe Illustrator 22.1.0, SVG Export Plug-In . SVG Version: 6.00 Build 0)  -->
<svg version="1.1" id="Layer_1" xmlns="http://www.w3.org/2000/svg" xmlns:xlink="http://www.w3.org/1999/xlink" x="0px" y="0px"
	 width="32px" height="32px" viewBox="0 0 32 32" enable-background="new 0 0 32 32" xml:space="preserve">
<g>
	<path fill="#E08C37" d="M16.9,14.897v-0.031c-0.007,0.01-0.015,0.021-0.021,0.031H16.9z"/>
	<path fill="#E08C37" d="M16,1.375C7.923,1.375,1.375,7.923,1.375,16S7.923,30.625,16,30.625S30.625,24.077,30.625,16
		S24.077,1.375,16,1.375z M11.906,23.167H8.691v-9.671h3.215V23.167z M10.299,12.176h-0.021c-1.078,0-1.777-0.744-1.777-1.672
		c0-0.949,0.72-1.671,1.82-1.671c1.1,0,1.777,0.722,1.798,1.671C12.118,11.432,11.42,12.176,10.299,12.176z M23.5,23.167h-3.215
		v-5.174c0-1.3-0.465-2.187-1.629-2.187c-0.888,0-1.417,0.598-1.65,1.176c-0.085,0.207-0.107,0.495-0.107,0.784v5.401h-3.216
		c0,0,0.043-8.763,0-9.671H16.9v1.371c0.427-0.658,1.19-1.598,2.898-1.598c2.116,0,3.702,1.382,3.702,4.353V23.167z"/>
</g>
</svg>
