<?xml version="1.0" encoding="utf-8"?>
<!-- Generator: Adobe Illustrator 22.1.0, SVG Export Plug-In . SVG Version: 6.00 Build 0)  -->
<svg version="1.1" id="Layer_1" xmlns="http://www.w3.org/2000/svg" xmlns:xlink="http://www.w3.org/1999/xlink" x="0px" y="0px"
	 width="225px" height="75px" viewBox="0 0 225 75" enable-background="new 0 0 225 75" xml:space="preserve">
<g>
	<g>
		<g>
			<path fill-rule="evenodd" clip-rule="evenodd" fill="#E08C37" d="M61.819,32.921c-0.091-0.366-0.13-0.67-0.114-0.913
				c0.016-0.259,0.077-0.405,0.182-0.435c0.107-0.014,0.221,0.084,0.342,0.298c0.137,0.198,0.245,0.463,0.321,0.799
				c0.075,0.335,0.114,0.631,0.114,0.889c-0.016,0.244-0.077,0.396-0.184,0.456c-0.107,0.03-0.221-0.053-0.342-0.251
				C62.017,33.552,61.91,33.27,61.819,32.921 M63.849,35.727c-0.014,0.061-0.014,0.13,0,0.205c0,0.016,0.007,0.039,0.023,0.07
				c-0.016-0.123-0.023-0.245-0.023-0.366V35.727 M61.158,26.781c0.075,0.016,0.114-0.037,0.114-0.158
				c-0.289-0.564-0.594-1.103-0.913-1.621c-0.061-0.047-0.107-0.077-0.137-0.091c-0.107-0.047-0.152,0.007-0.137,0.158
				c0.031,0.153,0.114,0.359,0.251,0.617c0.137,0.275,0.282,0.517,0.433,0.731C60.936,26.615,61.067,26.737,61.158,26.781
				 M58.99,26.418c-0.031-0.031-0.061-0.047-0.091-0.047c-0.321-0.047-0.654-0.091-1.006-0.137c-0.044,0-0.075,0.007-0.091,0.023
				c-0.03,0.03-0.044,0.068-0.044,0.114c-0.047,0.701-0.131,1.453-0.251,2.259c0,0.061,0.014,0.145,0.044,0.251
				c0.047,0.107,0.107,0.191,0.184,0.251c0.03,0.044,0.061,0.091,0.091,0.137c0.061,0.044,0.121,0.075,0.182,0.091
				c0.047,0,0.077-0.023,0.093-0.07c0.182-0.501,0.333-0.98,0.456-1.437c0.85,2.205,1.49,4.526,1.916,6.96
				c0.014,0.121,0.044,0.212,0.091,0.275c0.061,0.06,0.107,0.084,0.137,0.068c0.03,0,0.053-0.007,0.068-0.023
				c0.031-0.014,0.053-0.053,0.07-0.114c0.03-0.075,0.037-0.152,0.021-0.228c-0.152-1.43-0.38-2.813-0.685-4.152
				c0.564,1.276,1.036,2.554,1.416,3.833c0.03,0.077,0.061,0.13,0.091,0.161c0.031,0.044,0.061,0.06,0.091,0.044
				c0.016-0.014,0.031-0.023,0.047-0.023c0.03-0.014,0.053-0.068,0.068-0.158c0-0.077-0.007-0.167-0.021-0.275
				c-0.533-2.175-1.271-4.289-2.214-6.343c0.426,0.426,0.829,0.843,1.208,1.255c0.047,0.03,0.077,0.044,0.093,0.044
				c0.03-0.014,0.044-0.044,0.044-0.091c0-0.03-0.007-0.061-0.023-0.091c0-0.047-0.014-0.114-0.044-0.205
				c-0.031-0.077-0.07-0.145-0.114-0.205c-0.503-0.685-1.066-1.369-1.688-2.054C59.081,26.485,59.034,26.448,58.99,26.418
				 M61.956,41.317c-0.137,0.137-0.259,0.372-0.366,0.708c-0.091,0.319-0.144,0.654-0.161,1.004
				c-0.014,0.335,0.023,0.57,0.114,0.708c0.093,0.121,0.214,0.114,0.366-0.023c0.137-0.152,0.251-0.38,0.342-0.685
				c0.107-0.319,0.161-0.638,0.161-0.959c0.014-0.333-0.023-0.57-0.114-0.706C62.208,41.21,62.094,41.196,61.956,41.317
				 M61.067,28.881c0.044,0.091,0.084,0.167,0.114,0.228c0.03,0.016,0.052,0.047,0.068,0.091l0.091,0.091
				c0.031,0,0.047-0.014,0.047-0.044c0.044-0.396,0.075-0.761,0.091-1.097c0.685,1.765,1.208,3.607,1.574,5.523
				c0.016,0.091,0.039,0.167,0.07,0.228c0.03,0.047,0.052,0.068,0.068,0.068c0.016-0.014,0.03-0.021,0.047-0.021
				c0-0.016,0.007-0.047,0.021-0.093v-0.158c-0.182-1.127-0.403-2.221-0.661-3.285c0.35,0.927,0.654,1.84,0.913,2.738
				c-0.426-2.191-1.118-4.252-2.077-6.184c-0.152-0.047-0.319-0.1-0.501-0.161c-0.016,0-0.031,0.007-0.047,0.023v0.091
				c0.061,0.547,0.107,1.134,0.137,1.758C61.02,28.737,61.036,28.805,61.067,28.881 M59.034,45.676
				c0.047,0.03,0.1,0.023,0.161-0.023c0.03-0.016,0.053-0.037,0.068-0.068c0.063-0.031,0.107-0.084,0.137-0.161
				c0.047-0.077,0.077-0.161,0.091-0.251c0.245-1.43,0.419-2.906,0.526-4.426c0.242,1.262,0.417,2.449,0.524,3.56
				c0,0.075,0.016,0.121,0.047,0.137c0.03,0.014,0.061,0.007,0.091-0.023c0.03-0.031,0.061-0.053,0.091-0.07
				c0.031-0.044,0.07-0.114,0.114-0.205c0.047-0.107,0.061-0.205,0.047-0.296c0.014-2.084-0.191-4.305-0.617-6.664
				c0.382,0.305,0.738,0.601,1.073,0.889c0.044,0.031,0.075,0.031,0.091,0c0.047-0.044,0.077-0.105,0.091-0.182
				c0-0.03,0.007-0.068,0.023-0.114v-0.275c-0.016-0.091-0.037-0.158-0.068-0.205c-0.426-0.608-0.892-1.239-1.392-1.893
				c-0.047-0.031-0.091-0.061-0.137-0.091c-0.03-0.016-0.068-0.016-0.114,0c-0.366,0.166-0.761,0.333-1.187,0.501
				c-0.044,0.016-0.084,0.053-0.114,0.114c-0.044,0.061-0.075,0.13-0.091,0.205c-0.303,1.171-0.669,2.375-1.094,3.607
				c-0.047,0.107-0.061,0.221-0.047,0.342c0.016,0.121,0.053,0.212,0.114,0.272c0.031,0.031,0.061,0.063,0.091,0.093
				c0.063,0.044,0.123,0.06,0.184,0.044c0.061-0.03,0.114-0.091,0.158-0.182c0.396-0.806,0.754-1.597,1.073-2.373
				c0.258,2.662,0.266,5.164,0.023,7.507C58.99,45.555,59.004,45.629,59.034,45.676 M58.533,32.281
				c-0.214,0.061-0.358,0.259-0.433,0.594c-0.063,0.335-0.047,0.731,0.044,1.187c0.121,0.456,0.289,0.805,0.503,1.048
				c0.212,0.245,0.426,0.328,0.638,0.251c0.198-0.091,0.335-0.303,0.412-0.638c0.075-0.319,0.06-0.692-0.047-1.118
				c-0.107-0.426-0.266-0.761-0.48-1.006C58.959,32.357,58.746,32.251,58.533,32.281 M55.362,19.959
				c-0.016,0-0.031,0.007-0.047,0.023c0,0.305-0.016,0.638-0.047,1.004c0,0.031,0.023,0.077,0.07,0.137
				c0.044,0.077,0.098,0.137,0.158,0.182c0.047,0.031,0.084,0.063,0.114,0.093c0.063,0.044,0.114,0.084,0.161,0.114
				c0.061,0.014,0.091,0.007,0.091-0.023c0.107-0.184,0.205-0.366,0.298-0.547c0.973,1.353,1.886,2.897,2.738,4.631
				c0.03,0.077,0.075,0.152,0.135,0.228c0.063,0.061,0.114,0.098,0.161,0.114h0.047c0.03,0.016,0.044,0,0.044-0.047
				c0.016-0.03,0.007-0.075-0.023-0.135c-0.41-0.989-0.836-1.909-1.276-2.761c0.699,0.927,1.353,1.909,1.961,2.943
				c0.031,0.061,0.07,0.114,0.114,0.161c0.047,0.044,0.077,0.068,0.093,0.068c0.014,0,0.03,0.007,0.044,0.023
				c0.031,0,0.047-0.023,0.047-0.07c0-0.044-0.023-0.105-0.07-0.182c-0.896-1.674-1.886-3.202-2.966-4.587
				c0.456,0.382,0.892,0.761,1.302,1.141c0.047,0.031,0.084,0.053,0.114,0.07c-0.275-0.335-0.554-0.664-0.845-0.983
				c-0.363-0.349-0.745-0.699-1.141-1.05c-0.044-0.03-0.091-0.06-0.135-0.091c-0.047-0.044-0.084-0.068-0.114-0.068
				c-0.305-0.137-0.617-0.267-0.936-0.389C55.406,19.945,55.376,19.945,55.362,19.959 M47.9,51.082
				c0.047,0.366,0.244,0.601,0.594,0.708c0.335,0.121,0.729,0.091,1.185-0.091c0.442-0.212,0.808-0.503,1.097-0.866
				c0.289-0.382,0.426-0.769,0.41-1.164c-0.03-0.396-0.205-0.654-0.524-0.775c-0.319-0.137-0.715-0.114-1.187,0.068
				c-0.486,0.228-0.882,0.54-1.185,0.936C47.984,50.293,47.853,50.689,47.9,51.082 M57.164,23.929
				c-0.198-0.03-0.298,0.039-0.298,0.207c-0.014,0.182,0.063,0.433,0.228,0.752c0.184,0.335,0.389,0.617,0.617,0.845
				c0.244,0.242,0.456,0.387,0.638,0.433c0.168,0.014,0.259-0.077,0.275-0.275c0-0.182-0.084-0.433-0.251-0.752
				c-0.167-0.305-0.366-0.57-0.594-0.799C57.551,24.113,57.346,23.975,57.164,23.929 M50.98,36.23
				c0.152,0.577,0.41,1.01,0.775,1.299c0.366,0.289,0.761,0.366,1.187,0.228c0.38-0.152,0.661-0.449,0.843-0.889
				c0.168-0.456,0.191-0.959,0.07-1.506c-0.153-0.531-0.403-0.943-0.754-1.232c-0.363-0.305-0.745-0.419-1.141-0.342
				c-0.426,0.121-0.729,0.41-0.913,0.866C50.866,35.11,50.843,35.636,50.98,36.23 M48.95,43.965
				c0.014,0.152,0.075,0.251,0.182,0.296c0.061,0.031,0.114,0.07,0.161,0.114c0.091,0.047,0.198,0.053,0.319,0.023
				c0.121-0.047,0.221-0.121,0.296-0.228c0.761-1.004,1.469-2.016,2.123-3.034c0.137,1.597,0.198,3.111,0.182,4.54
				c0,1.43-0.044,2.768-0.137,4.016c0,0.105,0.039,0.182,0.114,0.228c0.077,0.03,0.168,0.014,0.275-0.047
				c0.047-0.016,0.091-0.037,0.137-0.068c0.091-0.031,0.167-0.093,0.228-0.184c0.075-0.091,0.121-0.175,0.137-0.251
				c0.349-1.551,0.638-3.216,0.866-4.997c0.426,1.416,0.775,2.724,1.05,3.926c0.014,0.061,0.053,0.098,0.114,0.114
				c0.061,0.014,0.128,0,0.205-0.047c0.047-0.014,0.084-0.037,0.114-0.068c0.107-0.047,0.191-0.13,0.251-0.251
				c0.061-0.121,0.084-0.228,0.068-0.319c-0.075-2.328-0.403-4.929-0.98-7.805c0.699,0.319,1.362,0.624,1.984,0.913
				c0.063,0.031,0.123,0.023,0.184-0.023c0.075-0.044,0.128-0.121,0.158-0.228c0.031-0.044,0.047-0.091,0.047-0.135
				c0.047-0.107,0.061-0.221,0.047-0.342c-0.016-0.123-0.054-0.214-0.114-0.275c-0.747-0.669-1.567-1.385-2.466-2.144
				c-0.075-0.061-0.152-0.1-0.228-0.114c-0.075,0-0.152,0.007-0.228,0.023c-0.699,0.272-1.453,0.554-2.259,0.843
				c-0.091,0.031-0.175,0.084-0.251,0.161c-0.091,0.091-0.152,0.189-0.182,0.296c-0.685,1.553-1.46,3.104-2.328,4.654
				C48.957,43.69,48.934,43.827,48.95,43.965 M62.685,42.367c0.016,0.03,0.039,0.03,0.07,0c0.014-0.016,0.03-0.031,0.044-0.047
				c0.031-0.014,0.054-0.061,0.07-0.137c0.014-0.06,0.03-0.121,0.044-0.182c0.123-1.218,0.184-2.442,0.184-3.674
				c0.167,1.05,0.282,2.07,0.342,3.057c0,0.047,0.007,0.084,0.023,0.114c0.014,0.016,0.03,0.009,0.044-0.021
				c0.016,0,0.031-0.016,0.047-0.047c0.014-0.016,0.03-0.068,0.044-0.161c0.031-0.075,0.039-0.152,0.023-0.228
				c0-1.779-0.175-3.628-0.524-5.544c0.228,0.289,0.426,0.563,0.594,0.822c0.03,0.03,0.052,0.03,0.068,0
				c0-0.016,0.007-0.053,0.023-0.114v-0.091c0.014-0.063,0.014-0.131,0-0.207c-0.016-0.091-0.031-0.152-0.047-0.182
				c-0.242-0.517-0.517-1.057-0.822-1.621c-0.03-0.03-0.052-0.053-0.068-0.068c-0.03-0.031-0.053-0.039-0.068-0.023
				c-0.168,0.091-0.359,0.191-0.57,0.296c-0.016,0-0.031,0.023-0.047,0.07c-0.016,0.044-0.03,0.098-0.047,0.158
				c-0.075,0.868-0.205,1.774-0.387,2.717v0.272c0.014,0.091,0.037,0.167,0.068,0.228c0.016,0.016,0.031,0.039,0.047,0.07
				c0.03,0.044,0.061,0.06,0.091,0.044c0.047-0.014,0.077-0.053,0.091-0.114c0.167-0.608,0.312-1.202,0.433-1.779
				c0.259,2.128,0.328,4.191,0.207,6.184C62.664,42.253,62.671,42.321,62.685,42.367 M21.34,22.788h0.023
				c0.03,0,0.068-0.014,0.114-0.044c0.044-0.047,0.098-0.1,0.158-0.161c0.456-0.531,0.929-1.05,1.416-1.551
				c-0.503,1.125-0.966,2.449-1.392,3.97c-0.03,0.077-0.023,0.121,0.023,0.137c0.03,0.014,0.084,0,0.158-0.047
				c0.016-0.03,0.039-0.053,0.07-0.068c0.061-0.047,0.114-0.1,0.158-0.161c0.063-0.075,0.1-0.144,0.114-0.205
				c0.412-1.034,0.838-1.986,1.278-2.852c0.031,0.563,0.091,1.187,0.184,1.872c0,0.03,0.021,0.052,0.068,0.068
				c0.047-0.016,0.098-0.037,0.161-0.068c0.044-0.031,0.084-0.054,0.114-0.07c0.091-0.061,0.166-0.137,0.228-0.228
				c0.06-0.075,0.098-0.144,0.114-0.205c0.075-1.278,0.212-2.373,0.41-3.285c0.426-0.107,0.875-0.214,1.346-0.319
				c0.061,0,0.121-0.023,0.184-0.07c0.075-0.044,0.135-0.091,0.182-0.137l0.091-0.091c0.047-0.044,0.077-0.091,0.091-0.137
				c0-0.03-0.021-0.044-0.068-0.044c-0.517,0.014-1.004,0.044-1.46,0.091c-0.016,0.016-0.053,0.03-0.114,0.047
				c-0.031,0.014-0.077,0.037-0.137,0.068c-0.486,0.305-0.959,0.617-1.416,0.936c-0.044,0.03-0.091,0.068-0.135,0.114
				c-0.063,0.044-0.107,0.091-0.137,0.137c-0.61,0.654-1.194,1.339-1.758,2.054c-0.044,0.06-0.075,0.114-0.091,0.158
				C21.301,22.758,21.309,22.788,21.34,22.788 M55.658,55.716c-0.41,0.014-0.852,0.014-1.323,0c-0.031,0-0.077,0.014-0.137,0.044
				c-0.047,0.016-0.1,0.039-0.161,0.07c-0.563,0.335-1.148,0.661-1.756,0.98c-0.063,0.031-0.123,0.07-0.184,0.114
				c-0.075,0.047-0.137,0.091-0.182,0.137c-0.701,0.669-1.4,1.285-2.1,1.849c-0.061,0.044-0.091,0.084-0.091,0.114
				c0,0.044,0.023,0.061,0.068,0.044h0.093c0.06,0,0.121-0.014,0.182-0.044c0.077-0.016,0.144-0.047,0.205-0.091
				c0.578-0.412,1.157-0.845,1.735-1.302c-0.137,0.366-0.266,0.701-0.389,1.004c0.778-0.426,1.522-0.897,2.238-1.413
				c0.03-0.214,0.068-0.442,0.114-0.685c0.41-0.093,0.791-0.191,1.141-0.298c0.198-0.152,0.396-0.312,0.594-0.48
				C55.704,55.73,55.688,55.716,55.658,55.716 M18.693,27.74c0.016,0.016,0.047,0,0.091-0.047c0.016-0.014,0.039-0.037,0.07-0.068
				c0.044-0.047,0.091-0.107,0.135-0.182c0.047-0.093,0.077-0.168,0.093-0.228c0.182-1.097,0.41-2.093,0.685-2.99
				c-0.321,0.471-0.617,0.95-0.892,1.437c-0.091,0.61-0.158,1.278-0.205,2.009C18.655,27.717,18.662,27.74,18.693,27.74
				 M17.803,30.888c-0.016,0.077-0.007,0.131,0.023,0.161c0,0.016,0.007,0.03,0.021,0.047c0.016,0.03,0.047,0.03,0.093,0
				c0.03-0.031,0.068-0.084,0.114-0.161c0.319-0.685,0.675-1.362,1.071-2.03c-0.38,1.946-0.577,4.068-0.594,6.366
				c0,0.091,0.016,0.167,0.047,0.228c0.047,0.061,0.091,0.068,0.137,0.023c0.03-0.016,0.053-0.031,0.068-0.047
				c0.031-0.03,0.07-0.084,0.114-0.158c0.016-0.077,0.031-0.161,0.047-0.251c0.121-1.476,0.319-2.906,0.594-4.291
				c0.105,1.097,0.272,2.268,0.501,3.516c0.031,0.075,0.061,0.128,0.091,0.158c0.047,0.031,0.093,0.031,0.137,0
				c0.031-0.014,0.061-0.037,0.091-0.068c0.077-0.031,0.131-0.107,0.161-0.228c0.047-0.121,0.061-0.235,0.047-0.342
				c-0.184-2.282-0.191-4.335-0.023-6.161c0.38,0.03,0.783,0.068,1.208,0.114c0.047,0,0.1-0.023,0.161-0.07
				c0.075-0.06,0.137-0.135,0.182-0.228c0.016-0.03,0.039-0.068,0.07-0.114c0.044-0.091,0.075-0.174,0.091-0.249
				c0-0.093-0.023-0.145-0.07-0.161c-0.471-0.212-0.904-0.41-1.299-0.594c-0.031-0.014-0.07-0.014-0.114,0
				c-0.031,0.016-0.077,0.047-0.137,0.091c-0.426,0.351-0.829,0.701-1.208,1.05c-0.031,0.031-0.07,0.077-0.114,0.137
				c-0.047,0.061-0.084,0.121-0.114,0.182c-0.503,0.943-0.943,1.888-1.325,2.831C17.826,30.73,17.803,30.814,17.803,30.888
				 M20.038,26.828c0.228-0.198,0.433-0.44,0.617-0.731c0.182-0.303,0.312-0.585,0.387-0.843c0.047-0.244,0.016-0.389-0.091-0.433
				c-0.107-0.031-0.272,0.037-0.501,0.205c-0.198,0.198-0.389,0.433-0.57,0.708c-0.168,0.288-0.282,0.561-0.342,0.82
				c-0.063,0.259-0.047,0.412,0.044,0.456C19.689,27.072,19.841,27.009,20.038,26.828 M17.826,45.995
				c0.121-0.016,0.189-0.144,0.205-0.389c0-0.242-0.047-0.547-0.137-0.913c-0.107-0.349-0.235-0.638-0.389-0.866
				c-0.135-0.212-0.258-0.305-0.363-0.275c-0.107,0.047-0.168,0.191-0.184,0.435c0,0.242,0.047,0.54,0.137,0.889
				c0.091,0.335,0.212,0.608,0.366,0.822C17.598,45.911,17.719,46.011,17.826,45.995 M62.96,44.351
				c-0.167-0.288-0.35-0.601-0.547-0.934c-0.031-0.016-0.053-0.023-0.07-0.023c-0.03,0-0.052,0.014-0.068,0.044
				c-0.258,0.275-0.533,0.556-0.822,0.845c-0.03,0.03-0.061,0.077-0.091,0.137c-0.047,0.061-0.077,0.121-0.091,0.182
				c-0.382,1.004-0.815,1.993-1.302,2.966c-0.044,0.091-0.075,0.175-0.091,0.251c0,0.077,0.007,0.121,0.023,0.137
				c0.03,0.014,0.044,0.03,0.044,0.044c0.031,0.016,0.07,0.009,0.114-0.021c0.047-0.031,0.084-0.084,0.114-0.161
				c0.396-0.669,0.754-1.339,1.073-2.007c-0.275,1.763-0.654,3.36-1.141,4.792c0.228-0.351,0.449-0.708,0.661-1.073
				c0.244-0.654,0.464-1.346,0.661-2.077c-0.014,0.335-0.037,0.661-0.068,0.983c0.198-0.396,0.389-0.799,0.57-1.211
				c0.121-0.775,0.212-1.597,0.275-2.463c0.198,0.075,0.38,0.158,0.547,0.251h0.023c0.06-0.214,0.121-0.426,0.182-0.64V44.351
				 M59.171,50.787c-0.212,0.182-0.41,0.419-0.594,0.708c-0.182,0.272-0.312,0.531-0.387,0.775
				c-0.061,0.212-0.039,0.326,0.068,0.342c0.091,0.03,0.244-0.047,0.456-0.228c0.198-0.182,0.382-0.403,0.547-0.661
				c0.168-0.259,0.291-0.503,0.366-0.731C59.735,50.521,59.584,50.452,59.171,50.787 M53.399,52.612
				c0.075-0.047,0.144-0.107,0.205-0.182c0.03-0.047,0.061-0.084,0.091-0.114c0.047-0.077,0.077-0.161,0.091-0.251
				c0-0.077-0.03-0.114-0.091-0.114c-0.699-0.214-1.467-0.456-2.305-0.731c-0.06-0.014-0.135-0.014-0.228,0
				c-0.075,0-0.158,0.023-0.249,0.07c-0.822,0.38-1.674,0.745-2.557,1.094c-0.107,0.03-0.198,0.084-0.275,0.161
				c-0.091,0.06-0.166,0.128-0.228,0.205c-0.866,1.004-1.711,1.932-2.531,2.782c-0.077,0.077-0.107,0.145-0.093,0.207
				c0.016,0.075,0.07,0.121,0.161,0.135c0.047,0.016,0.091,0.031,0.137,0.047c0.091,0.016,0.189,0.007,0.296-0.023
				c0.107-0.03,0.198-0.068,0.275-0.114c0.729-0.577,1.46-1.194,2.191-1.849c-0.047,1.674-0.131,3.09-0.251,4.245
				c-0.016,0.047,0.014,0.077,0.091,0.091c0.077,0,0.161-0.014,0.251-0.044c0.044-0.016,0.091-0.031,0.137-0.047
				c0.075-0.03,0.144-0.068,0.205-0.114c0.061-0.044,0.098-0.091,0.114-0.137c0.335-0.759,0.661-1.604,0.98-2.531
				c0.335,0.654,0.631,1.239,0.889,1.756c0.016,0.031,0.054,0.047,0.114,0.047c0.047-0.016,0.107-0.039,0.184-0.07
				c0.044-0.014,0.091-0.037,0.137-0.068c0.091-0.03,0.174-0.084,0.249-0.161c0.063-0.06,0.093-0.114,0.093-0.158
				c-0.031-1.127-0.145-2.48-0.342-4.063c0.715,0.016,1.39,0.023,2.03,0.023C53.232,52.703,53.309,52.673,53.399,52.612
				 M18.031,47.981c0-0.093,0.007-0.191,0.023-0.298c0.182,0.503,0.372,0.989,0.57,1.46c0.426,0.778,0.889,1.53,1.39,2.261
				c-0.182-0.426-0.356-0.861-0.524-1.302c0.624,1.094,1.302,2.138,2.03,3.127c0.047,0.06,0.1,0.114,0.161,0.158
				c0.044,0.047,0.084,0.077,0.114,0.091h0.068c0.047,0.031,0.07,0.023,0.07-0.021c0-0.063-0.023-0.123-0.07-0.184
				c-1.155-1.718-2.16-3.581-3.011-5.59c0.41,0.426,0.85,0.852,1.323,1.278c0.047,0.047,0.091,0.068,0.137,0.068
				c0.03-0.014,0.044-0.052,0.044-0.114v-0.068c0-0.061-0.014-0.137-0.044-0.228c-0.047-0.091-0.1-0.167-0.161-0.228
				c-0.638-0.715-1.216-1.43-1.735-2.144c-0.03-0.031-0.068-0.061-0.114-0.091c-0.03-0.031-0.06-0.047-0.091-0.047
				c-0.228,0.03-0.449,0.053-0.661,0.068c-0.016,0-0.03,0.016-0.047,0.047c-0.014,0.03-0.021,0.068-0.021,0.114
				c0.014,0.182,0.021,0.358,0.021,0.524C17.673,47.243,17.847,47.615,18.031,47.981 M34.551,60.394
				c0.077,0.014,0.152,0.023,0.228,0.023c0.047,0.014,0.091,0.021,0.137,0.021c0.075,0,0.137-0.014,0.182-0.044
				c0.031-0.031,0.023-0.07-0.023-0.114c-1.094-0.959-2.251-2.175-3.467-3.651c0.882,0.349,1.779,0.661,2.692,0.936
				c0.107,0.03,0.205,0.044,0.298,0.044c0.075-0.014,0.135-0.044,0.182-0.091l0.047-0.047c0.03-0.044,0.021-0.098-0.023-0.158
				c-0.047-0.061-0.114-0.114-0.205-0.161c-1.203-0.486-2.389-1.041-3.56-1.665c-0.077-0.047-0.161-0.077-0.251-0.091
				c-0.091-0.031-0.175-0.047-0.251-0.047c-0.685-0.03-1.346-0.077-1.984-0.137c-0.077,0-0.137,0.007-0.184,0.023
				c-0.044,0.016-0.075,0.047-0.091,0.091c-0.228,0.503-0.433,0.966-0.617,1.392c-0.014,0.03,0,0.077,0.047,0.137
				c0.061,0.061,0.13,0.121,0.205,0.182c0.047,0.016,0.091,0.039,0.137,0.07c0.077,0.06,0.152,0.091,0.228,0.091
				c0.061,0.03,0.107,0.03,0.137,0c0.289-0.214,0.585-0.45,0.889-0.708c0.929,1.416,1.825,2.601,2.692,3.56
				c0.031,0.044,0.093,0.084,0.184,0.114c0.091,0.044,0.175,0.075,0.251,0.091h0.114c0.06,0.016,0.105,0.016,0.135,0
				c0.031-0.03,0.039-0.053,0.023-0.068c-0.289-0.533-0.585-1.134-0.889-1.804c0.883,0.731,1.735,1.369,2.557,1.919
				C34.414,60.333,34.474,60.363,34.551,60.394 M45.39,14.643c-0.061,0-0.121-0.007-0.182-0.023
				c-0.533-0.047-1.081-0.084-1.644-0.114c-0.061-0.016-0.114-0.016-0.161,0c-0.044,0-0.084,0.007-0.114,0.023
				c-0.363,0.182-0.752,0.387-1.162,0.615c-0.047,0.031-0.054,0.063-0.023,0.093c0.044,0.03,0.107,0.052,0.182,0.068
				c0.031,0.016,0.077,0.03,0.137,0.047c0.061,0.014,0.137,0.021,0.228,0.021c0.077,0,0.137-0.007,0.182-0.021
				c0.412-0.137,0.808-0.267,1.187-0.389c0.654,0.701,1.362,1.574,2.121,2.624c0.031,0.061,0.1,0.107,0.207,0.137
				c0.105,0.044,0.205,0.075,0.296,0.091h0.114c0.061,0,0.114-0.007,0.161-0.023c0.03-0.03,0.037-0.061,0.021-0.091
				c-0.272-0.638-0.547-1.202-0.82-1.688c0.805,0.531,1.642,1.155,2.51,1.87c0.044,0.031,0.105,0.07,0.182,0.114
				c0.077,0.031,0.144,0.047,0.205,0.047c0.047,0.016,0.091,0.023,0.137,0.023c0.077,0.014,0.121,0.007,0.137-0.023
				c0.014-0.03,0-0.077-0.047-0.137c-1.141-1.125-2.235-2.054-3.285-2.782c0.685,0.198,1.353,0.417,2.007,0.661
				c0.063,0.014,0.123,0.03,0.184,0.044c0.061,0.016,0.098,0.016,0.114,0c0.014-0.014,0.023-0.021,0.023-0.021
				c0.014-0.016,0-0.047-0.047-0.093c-0.047-0.03-0.098-0.06-0.161-0.091c-0.836-0.349-1.672-0.654-2.51-0.913
				C45.511,14.681,45.45,14.657,45.39,14.643 M48.538,15.807c0.047,0.03,0.1,0.06,0.161,0.091c0.047,0.03,0.091,0.053,0.137,0.068
				c0.061,0.031,0.121,0.053,0.182,0.07c0.061,0.014,0.107,0.014,0.137,0c0.228-0.077,0.449-0.137,0.661-0.184
				c0.838,0.745,1.705,1.651,2.601,2.715c0.047,0.063,0.107,0.114,0.184,0.161c0.091,0.061,0.167,0.098,0.228,0.114
				c0.014,0,0.037,0.007,0.068,0.023c0.047,0,0.077-0.007,0.091-0.023c0.016,0,0.009-0.023-0.021-0.068
				c-0.396-0.61-0.799-1.164-1.211-1.667c0.775,0.61,1.553,1.278,2.328,2.009c0.044,0.044,0.091,0.084,0.137,0.114
				c0.06,0.044,0.114,0.075,0.158,0.091c0.031,0,0.053,0.007,0.07,0.023c0.06,0.014,0.091,0.014,0.091,0
				c0-0.031-0.031-0.077-0.091-0.137c-0.868-0.929-1.742-1.758-2.624-2.487c-0.899-0.519-1.842-0.983-2.831-1.392
				c-0.152,0.121-0.319,0.258-0.501,0.41C48.493,15.754,48.508,15.777,48.538,15.807 M38.772,14.62
				c-0.077,0.016-0.144,0.023-0.205,0.023c-0.64,0.075-1.278,0.158-1.916,0.251c-0.063,0.014-0.131,0.03-0.207,0.044
				c-0.06,0.031-0.105,0.053-0.135,0.07c-0.594,0.319-1.195,0.691-1.804,1.118c-0.06,0.03-0.084,0.061-0.068,0.091
				c0,0.03,0.037,0.053,0.114,0.068h0.114c0.077,0.016,0.152,0.009,0.228-0.021c0.091-0.016,0.167-0.039,0.228-0.07
				c0.563-0.289,1.118-0.554,1.665-0.799c0.228,0.731,0.496,1.644,0.799,2.738c0.016,0.047,0.07,0.084,0.161,0.114
				c0.107,0.016,0.212,0.016,0.319,0c0.061,0,0.114-0.007,0.161-0.023c0.091,0,0.167-0.021,0.228-0.068
				c0.061-0.047,0.091-0.091,0.091-0.137c0.016-0.699,0.03-1.323,0.047-1.87c0.668,0.456,1.383,0.996,2.144,1.618
				c0.03,0.031,0.091,0.054,0.182,0.07c0.091,0.03,0.184,0.037,0.275,0.023h0.158c0.107-0.016,0.191-0.047,0.251-0.093
				c0.047-0.044,0.047-0.091,0-0.135c-0.913-1.05-1.749-1.902-2.51-2.557c0.731,0.061,1.469,0.152,2.214,0.275
				c0.075,0.014,0.158,0.014,0.251,0c0.06,0,0.114-0.016,0.158-0.047c0,0,0.016-0.007,0.047-0.023c0.03-0.014,0.03-0.037,0-0.068
				c-0.031-0.031-0.084-0.053-0.161-0.07c-0.913-0.212-1.795-0.38-2.647-0.501C38.894,14.627,38.833,14.62,38.772,14.62
				 M41.578,14.231c0.031,0.016,0.084,0.031,0.161,0.047c0.061,0,0.121,0.007,0.182,0.023h0.137c0.077,0,0.13-0.007,0.161-0.023
				c0.044-0.03,0.044-0.053,0-0.068c-0.382-0.245-0.745-0.473-1.097-0.685c-0.41-0.016-0.82-0.023-1.232-0.023
				C40.423,13.7,40.987,13.943,41.578,14.231 M44.91,14.278c-0.121-0.091-0.312-0.175-0.57-0.251
				c-0.258-0.075-0.524-0.121-0.799-0.137c-0.272-0.014-0.471,0-0.594,0.047c-0.121,0.047-0.128,0.114-0.021,0.205
				c0.121,0.091,0.319,0.167,0.591,0.228c0.275,0.077,0.556,0.121,0.845,0.137C44.957,14.536,45.138,14.459,44.91,14.278
				 M30.968,59.753c-0.182-0.166-0.426-0.319-0.729-0.456c-0.305-0.152-0.601-0.258-0.889-0.319
				c-0.335-0.061-0.503-0.023-0.503,0.114c0.731,0.382,1.476,0.715,2.235,1.004C31.159,60.035,31.121,59.921,30.968,59.753
				 M16.478,40.428c-0.288-0.503-0.54-0.983-0.752-1.439c0.016,0.245,0.03,0.487,0.047,0.731c0.014,0.212,0.037,0.419,0.068,0.617
				c0.182,0.242,0.38,0.494,0.594,0.752c0.014,0.03,0.037,0.037,0.068,0.023c0.016-0.031,0.031-0.077,0.047-0.137v-0.091
				c0.014-0.077,0.014-0.161,0-0.251C16.518,40.542,16.495,40.472,16.478,40.428 M39.068,61.192
				c0.747,0.091,1.476,0.158,2.191,0.205c0.077,0,0.153-0.007,0.228-0.023c0.077-0.014,0.137-0.03,0.184-0.044
				c0.014-0.016,0.03-0.031,0.044-0.047c0.061-0.03,0.077-0.061,0.047-0.091c-0.016-0.016-0.061-0.031-0.137-0.047
				c-0.897-0.107-1.818-0.266-2.761-0.48c-0.061-0.014-0.128-0.021-0.205-0.021c-0.091-0.016-0.167-0.016-0.228,0
				c-0.701,0.044-1.376,0.068-2.03,0.068c-0.077,0-0.145,0.007-0.205,0.023c-0.047,0-0.084,0.014-0.114,0.044
				c-0.305,0.184-0.594,0.359-0.868,0.526c0.35,0.061,0.701,0.121,1.05,0.182c0.182-0.061,0.366-0.121,0.547-0.182
				c0.091,0.091,0.175,0.182,0.251,0.272c0.883,0.107,1.772,0.161,2.671,0.161C39.518,61.572,39.296,61.39,39.068,61.192
				 M15.749,37.713c0,0.075,0.007,0.144,0.023,0.205c0.03,0.03,0.052,0.037,0.068,0.023c0.016-0.016,0.03-0.023,0.047-0.023
				c0.014-0.031,0.03-0.07,0.044-0.114c0.016-0.077,0.023-0.145,0.023-0.205c0.016-1.218,0.098-2.419,0.251-3.607
				c0.03,0.989,0.121,2.016,0.272,3.08c0.016,0.077,0.031,0.121,0.047,0.137c0.03,0.03,0.053,0.037,0.068,0.023l0.047-0.047
				c0.03-0.03,0.061-0.091,0.091-0.182c0.016-0.091,0.016-0.184,0-0.275c-0.137-1.946-0.114-3.765,0.07-5.453
				c0.166,0.077,0.363,0.161,0.591,0.251c0.016,0.014,0.039,0,0.07-0.047c0.044-0.044,0.075-0.107,0.091-0.182
				c0.016-0.031,0.03-0.07,0.047-0.114c0.03-0.077,0.052-0.153,0.068-0.228c0-0.077-0.007-0.13-0.023-0.161
				c-0.228-0.258-0.433-0.501-0.615-0.729c0-0.031-0.016-0.039-0.047-0.023c-0.016,0.014-0.037,0.037-0.068,0.068
				c-0.016,0.016-0.031,0.039-0.047,0.07c-0.608,1.809-0.98,3.702-1.118,5.681C15.734,36.472,15.734,37.089,15.749,37.713
				 M17.528,28.949c0.016,0.031,0.047,0.023,0.091-0.021c0-0.016,0.016-0.031,0.047-0.047c0.016-0.047,0.047-0.098,0.091-0.161
				c0.031-0.06,0.053-0.121,0.07-0.182c0.303-1.004,0.645-1.956,1.027-2.852c-0.382,0.669-0.731,1.353-1.05,2.054
				c-0.091,0.35-0.184,0.708-0.275,1.073C17.514,28.889,17.514,28.935,17.528,28.949 M45.618,14.438
				c0.03,0.03,0.084,0.052,0.161,0.068c0.075,0.03,0.144,0.053,0.205,0.068h0.091c0.061,0.016,0.107,0.016,0.137,0
				c0.014,0,0.014-0.007,0-0.021c-0.047-0.093-0.107-0.168-0.184-0.228c-0.258-0.077-0.524-0.145-0.799-0.207
				C45.352,14.224,45.481,14.331,45.618,14.438 M39.252,14.301c0.014,0.03,0.061,0.053,0.137,0.068h0.363
				c0.063-0.014,0.114-0.023,0.161-0.023c0.03-0.03,0.047-0.052,0.047-0.068c-0.031-0.275-0.063-0.533-0.093-0.775
				c-0.38,0-0.768,0.007-1.162,0.023C38.871,13.754,39.054,14.012,39.252,14.301 M24.169,19.687
				c0.258-0.168,0.486-0.342,0.685-0.526c0.198-0.198,0.326-0.366,0.389-0.501c0.044-0.123-0.009-0.168-0.161-0.137
				c-0.533,0.426-1.057,0.866-1.574,1.323C23.508,20.012,23.729,19.959,24.169,19.687 M27.752,17.449
				c0,0.031,0.021,0.039,0.068,0.023c0.047-0.016,0.098-0.03,0.161-0.047c0.044-0.03,0.084-0.052,0.114-0.068
				c0.091-0.03,0.166-0.068,0.228-0.114c0.06-0.061,0.091-0.098,0.091-0.114v-0.775c-0.319,0.167-0.64,0.349-0.959,0.547
				C27.545,17.069,27.645,17.251,27.752,17.449 M25.766,18.546c0.03,0,0.084-0.023,0.161-0.07c0.03-0.014,0.06-0.03,0.091-0.044
				c0.061-0.031,0.114-0.07,0.158-0.114c0.063-0.047,0.1-0.084,0.114-0.114c0.275-0.382,0.54-0.738,0.799-1.073
				c-0.333,0.212-0.661,0.426-0.98,0.638c-0.137,0.228-0.266,0.473-0.389,0.731C25.705,18.529,25.72,18.546,25.766,18.546
				 M20.723,23.291c0.031,0,0.07-0.023,0.114-0.068c0.061-0.047,0.107-0.1,0.137-0.161l0.068-0.068
				c0.047-0.077,0.077-0.137,0.093-0.184c0.014-0.044,0.014-0.068,0-0.068h-0.298c-0.182,0.228-0.356,0.456-0.524,0.685
				C20.45,23.382,20.586,23.337,20.723,23.291 M32.316,15.714c0.075,0,0.152-0.014,0.228-0.044c0.044-0.016,0.084-0.023,0.114-0.023
				c0.075-0.03,0.135-0.061,0.182-0.091c0.061-0.016,0.098-0.039,0.114-0.07c0.198-0.38,0.396-0.722,0.594-1.027
				c0.335,0.168,0.699,0.366,1.094,0.594c0.016,0.016,0.053,0.023,0.114,0.023c0.077,0,0.145-0.007,0.205-0.023
				c0.047-0.014,0.093-0.03,0.137-0.044c0.091-0.016,0.161-0.039,0.205-0.07c0.063-0.03,0.077-0.053,0.047-0.068
				c-0.258-0.305-0.51-0.57-0.752-0.799c-0.747,0.167-1.476,0.366-2.191,0.594c-0.061,0.288-0.114,0.622-0.161,1.004
				C32.232,15.7,32.253,15.714,32.316,15.714 M37.608,14.711c0.319-0.044,0.57-0.107,0.754-0.182
				c0.166-0.091,0.212-0.175,0.135-0.251c-0.075-0.077-0.242-0.13-0.501-0.161c-0.244-0.03-0.526-0.021-0.845,0.023
				c-0.303,0.047-0.547,0.114-0.729,0.205c-0.168,0.093-0.237,0.177-0.207,0.251c0.063,0.077,0.221,0.13,0.48,0.161
				C36.97,14.772,37.273,14.757,37.608,14.711 M29.464,55.169c0.349,0.014,0.585-0.077,0.706-0.275
				c0.107-0.198,0.063-0.464-0.135-0.799c-0.214-0.335-0.51-0.624-0.892-0.866c-0.38-0.228-0.752-0.359-1.118-0.389
				c-0.335,0-0.547,0.107-0.638,0.319c-0.091,0.214-0.039,0.487,0.158,0.822c0.214,0.319,0.496,0.586,0.845,0.799
				C28.756,55.008,29.112,55.138,29.464,55.169 M27.135,56.901c0.077,0.047,0.144,0.07,0.205,0.07
				c0.061,0.014,0.091,0.007,0.091-0.023c0.016-0.03,0.023-0.047,0.023-0.047c0.016-0.044-0.007-0.098-0.068-0.158
				c-0.047-0.061-0.107-0.114-0.184-0.161c-0.943-0.594-1.84-1.224-2.692-1.893c-0.061-0.031-0.121-0.07-0.182-0.114
				c-0.063-0.031-0.114-0.047-0.161-0.047c-0.41-0.107-0.806-0.212-1.187-0.319h-0.091c-0.014,0.016-0.023,0.037-0.023,0.068
				c-0.014,0.168-0.021,0.328-0.021,0.48c0.258,0.259,0.524,0.51,0.799,0.754c0.03-0.047,0.06-0.093,0.091-0.137
				c0.137,0.198,0.272,0.396,0.41,0.594c1.066,0.896,2.198,1.702,3.399,2.417c-0.805-0.79-1.611-1.672-2.417-2.645
				C25.782,56.149,26.451,56.538,27.135,56.901 M23.484,54.256c0.212,0.044,0.335-0.009,0.366-0.161
				c0.014-0.152-0.07-0.372-0.251-0.661c-0.198-0.305-0.426-0.578-0.685-0.822c-0.258-0.228-0.486-0.372-0.685-0.433
				c-0.198-0.031-0.296,0.044-0.296,0.228c-0.016,0.167,0.06,0.396,0.228,0.685c0.182,0.272,0.394,0.524,0.638,0.752
				C23.058,54.058,23.286,54.193,23.484,54.256 M37.357,60.622c0.366-0.016,0.633-0.077,0.799-0.184
				c0.168-0.105,0.198-0.235,0.093-0.387c-0.123-0.167-0.359-0.298-0.708-0.389c-0.335-0.107-0.701-0.152-1.097-0.137
				c-0.363,0.016-0.622,0.077-0.775,0.184c-0.152,0.121-0.158,0.258-0.023,0.41c0.137,0.153,0.373,0.282,0.708,0.389
				C36.672,60.598,37.008,60.636,37.357,60.622 M21.249,34.861c-0.473,1.216-0.868,2.41-1.187,3.581c-0.03,0.091-0.03,0.198,0,0.319
				c0.016,0.123,0.047,0.207,0.091,0.251c0.031,0.047,0.061,0.084,0.091,0.114c0.047,0.061,0.1,0.077,0.161,0.047
				c0.047-0.016,0.084-0.061,0.114-0.137c0.319-0.775,0.685-1.567,1.094-2.373c0.184,2.89,0.67,5.742,1.462,8.557
				c0.044,0.121,0.105,0.228,0.182,0.319c0.091,0.091,0.175,0.13,0.251,0.114c0.03,0,0.061-0.007,0.091-0.023
				c0.061,0,0.107-0.037,0.137-0.114c0.03-0.061,0.037-0.144,0.023-0.251c-0.305-1.732-0.503-3.52-0.594-5.362
				c0.638,1.69,1.399,3.385,2.282,5.09c0.061,0.091,0.128,0.167,0.205,0.228c0.091,0.061,0.167,0.084,0.228,0.068
				c0.061,0,0.114-0.007,0.161-0.023c0.091-0.014,0.158-0.084,0.205-0.205c0.014-0.107,0-0.228-0.047-0.366
				c-0.608-1.521-1.125-3.05-1.551-4.585c-0.426-1.537-0.775-3.05-1.05-4.543c0.701,0.305,1.437,0.624,2.214,0.959
				c0.075,0.03,0.158,0.023,0.249-0.023c0.093-0.061,0.161-0.144,0.207-0.251c0.03-0.06,0.052-0.121,0.068-0.182
				c0.061-0.121,0.077-0.251,0.047-0.389c-0.016-0.135-0.07-0.235-0.161-0.296c-0.943-0.685-1.809-1.316-2.601-1.893
				c-0.047-0.047-0.107-0.07-0.184-0.07c-0.06,0-0.121,0.016-0.182,0.047c-0.608,0.349-1.178,0.685-1.711,1.004
				c-0.061,0.03-0.114,0.084-0.161,0.161C21.324,34.693,21.279,34.767,21.249,34.861 M22.276,30.753
				c-0.291,0.198-0.526,0.494-0.708,0.889c-0.198,0.396-0.289,0.799-0.275,1.208c0.016,0.426,0.121,0.724,0.319,0.889
				c0.198,0.184,0.45,0.198,0.754,0.047c0.303-0.198,0.554-0.503,0.752-0.913c0.198-0.426,0.298-0.859,0.298-1.302
				c-0.031-0.426-0.153-0.715-0.366-0.866C22.837,30.555,22.579,30.569,22.276,30.753 M20.518,48.71
				c0.03,0.107,0.077,0.191,0.137,0.251c0.044,0.03,0.084,0.068,0.114,0.114c0.044,0.047,0.098,0.077,0.158,0.091
				c0.047,0.016,0.077,0,0.093-0.044c0.121-0.442,0.272-0.906,0.456-1.392c0.82,2.266,1.763,4.312,2.829,6.138
				c0.044,0.077,0.107,0.144,0.182,0.205c0.091,0.077,0.167,0.114,0.228,0.114c0.031,0.016,0.061,0.023,0.091,0.023
				c0.047,0.016,0.077,0.007,0.093-0.023c0.03-0.03,0.03-0.075,0-0.137c-0.473-1.034-0.913-2.168-1.325-3.399
				c0.852,1.294,1.758,2.496,2.715,3.607c0.047,0.075,0.107,0.135,0.184,0.182c0.091,0.047,0.158,0.068,0.205,0.068
				c0.047,0.016,0.091,0.023,0.137,0.023c0.075,0.016,0.121-0.007,0.137-0.068c0.014-0.061-0.009-0.13-0.07-0.205
				c-1.399-1.963-2.677-4.184-3.833-6.664c0.699,0.486,1.437,0.973,2.212,1.46c0.093,0.047,0.168,0.061,0.228,0.047
				c0.077-0.016,0.123-0.053,0.137-0.114c0.016-0.047,0.023-0.084,0.023-0.114c0.03-0.077,0.016-0.175-0.047-0.298
				c-0.06-0.105-0.128-0.198-0.205-0.272c-1.034-0.838-1.984-1.674-2.852-2.51c-0.061-0.061-0.121-0.107-0.182-0.137
				c-0.061-0.016-0.114-0.023-0.161-0.023c-0.471,0.061-0.913,0.13-1.323,0.205c-0.047,0-0.084,0.023-0.114,0.07
				c-0.031,0.03-0.047,0.075-0.047,0.137c-0.121,0.866-0.205,1.681-0.251,2.44C20.457,48.542,20.471,48.619,20.518,48.71
				 M20.222,44.193c0.135,0.41,0.319,0.745,0.547,1.004c0.228,0.258,0.463,0.38,0.708,0.366c0.228-0.047,0.38-0.235,0.456-0.57
				c0.06-0.319,0.03-0.715-0.093-1.187c-0.135-0.456-0.326-0.813-0.57-1.071c-0.242-0.259-0.477-0.359-0.706-0.298
				c-0.214,0.077-0.351,0.282-0.412,0.617C20.092,43.387,20.115,43.766,20.222,44.193 M41.236,25.07
				c0.198,0.426,0.54,0.754,1.027,0.983c0.487,0.242,1.006,0.335,1.553,0.272c0.531-0.091,0.905-0.296,1.118-0.615
				c0.212-0.319,0.221-0.685,0.023-1.097c-0.198-0.394-0.526-0.706-0.983-0.934c-0.456-0.214-0.943-0.298-1.46-0.251
				c-0.517,0.075-0.897,0.266-1.141,0.57C41.145,24.318,41.101,24.676,41.236,25.07 M40.256,19.982
				c-1.202-0.38-2.366-0.701-3.49-0.959c-0.063-0.03-0.145-0.037-0.251-0.021c-0.091,0-0.175,0.007-0.251,0.021
				c-0.852,0.198-1.695,0.419-2.533,0.664c-0.091,0.014-0.175,0.044-0.251,0.091c-0.091,0.044-0.158,0.098-0.205,0.158
				c-0.822,0.761-1.642,1.606-2.463,2.533c-0.077,0.091-0.107,0.175-0.091,0.251c0,0.077,0.044,0.121,0.135,0.137
				c0.047,0.014,0.093,0.03,0.137,0.044c0.077,0.016,0.167,0.009,0.275-0.021c0.107-0.031,0.198-0.084,0.272-0.161
				c0.761-0.654,1.506-1.271,2.238-1.849c0.137,1.765,0.326,3.886,0.57,6.366c0.014,0.123,0.084,0.214,0.205,0.275
				s0.258,0.068,0.41,0.023c0.063-0.016,0.131-0.039,0.207-0.07c0.105-0.03,0.205-0.091,0.296-0.182
				c0.091-0.077,0.137-0.167,0.137-0.275c0.137-1.611,0.266-3.071,0.387-4.38c0.808,1.08,1.681,2.282,2.624,3.604
				c0.047,0.091,0.131,0.153,0.251,0.184c0.137,0.044,0.259,0.052,0.366,0.021c0.077-0.014,0.152-0.03,0.228-0.044
				c0.152-0.047,0.275-0.121,0.366-0.228c0.061-0.107,0.068-0.214,0.023-0.319c-1.127-2.282-2.116-4.215-2.966-5.798
				c0.957,0.123,1.94,0.282,2.943,0.48c0.107,0.031,0.212,0.031,0.319,0c0.107-0.03,0.182-0.068,0.228-0.114
				c0.03-0.03,0.053-0.061,0.068-0.091c0.047-0.047,0.054-0.107,0.023-0.182C40.416,20.066,40.346,20.012,40.256,19.982
				 M34.574,17.838c-0.412,0.107-0.738,0.258-0.983,0.456c-0.242,0.212-0.349,0.417-0.319,0.615c0.061,0.198,0.251,0.328,0.57,0.389
				c0.319,0.061,0.701,0.037,1.141-0.068c0.442-0.123,0.784-0.282,1.027-0.48c0.244-0.214,0.335-0.419,0.275-0.617
				c-0.091-0.182-0.298-0.303-0.617-0.366C35.35,17.708,34.984,17.731,34.574,17.838 M53.215,56.24
				c0.305-0.182,0.58-0.396,0.822-0.638c0.228-0.244,0.366-0.472,0.412-0.685c0.044-0.214-0.023-0.328-0.207-0.342
				c-0.182-0.016-0.433,0.061-0.752,0.228c-0.335,0.198-0.624,0.426-0.866,0.685c-0.245,0.242-0.382,0.471-0.412,0.685
				c-0.014,0.182,0.07,0.282,0.251,0.296C52.661,56.484,52.912,56.407,53.215,56.24 M39.091,31.415
				c0.047,0.137,0.137,0.242,0.275,0.319c0.075,0.047,0.158,0.091,0.251,0.137c0.121,0.061,0.266,0.084,0.433,0.068
				c0.152-0.03,0.272-0.098,0.366-0.205c0.882-0.943,1.718-1.841,2.51-2.692c0.486,1.688,0.943,3.474,1.369,5.362
				c0.44,1.886,0.805,3.833,1.094,5.84c0.016,0.184,0.091,0.321,0.228,0.412c0.152,0.091,0.305,0.114,0.456,0.068
				c0.061-0.03,0.13-0.053,0.205-0.068c0.107-0.047,0.205-0.13,0.298-0.251c0.075-0.121,0.114-0.251,0.114-0.389
				c0.044-2.403-0.054-4.745-0.298-7.027c1.171,2.024,2.191,4.054,3.057,6.093c0.047,0.121,0.123,0.205,0.228,0.249
				c0.107,0.047,0.207,0.054,0.298,0.023c0.075-0.03,0.144-0.053,0.205-0.068c0.121-0.047,0.212-0.145,0.275-0.298
				c0.075-0.166,0.091-0.319,0.044-0.456c-0.501-1.779-1.088-3.514-1.756-5.202c-0.67-1.704-1.4-3.332-2.191-4.883
				c1.155,0.486,2.259,0.988,3.309,1.506c0.107,0.06,0.205,0.075,0.296,0.044c0.091-0.03,0.161-0.091,0.205-0.182
				c0.016-0.047,0.031-0.084,0.047-0.114c0.03-0.107,0.023-0.221-0.023-0.342c-0.061-0.137-0.144-0.244-0.251-0.319
				c-1.307-0.913-2.684-1.774-4.128-2.58c-0.093-0.061-0.198-0.098-0.321-0.114c-0.121-0.03-0.228-0.037-0.319-0.023
				c-0.988,0.107-2.014,0.251-3.08,0.435c-0.107,0.014-0.212,0.052-0.319,0.114c-0.091,0.044-0.167,0.114-0.228,0.205
				c-0.806,1.202-1.674,2.51-2.601,3.923C39.077,31.126,39.061,31.261,39.091,31.415 M55.863,20.073
				c0.305,0.091,0.328-0.03,0.07-0.366c-0.335-0.303-0.678-0.591-1.027-0.866c-0.077-0.047-0.145-0.084-0.207-0.114
				c-0.349-0.121-0.363,0.016-0.044,0.41c0.182,0.198,0.387,0.382,0.615,0.549C55.497,19.868,55.695,19.998,55.863,20.073
				 M59.034,52.179c-0.303,0.272-0.622,0.547-0.957,0.822c-0.047,0.044-0.091,0.091-0.137,0.135
				c-0.047,0.063-0.091,0.114-0.137,0.161c-0.531,0.715-1.088,1.399-1.665,2.054C57.202,54.377,58.168,53.32,59.034,52.179"/>
			<path fill-rule="evenodd" clip-rule="evenodd" fill="#E08C37" d="M48.219,43.736c-1.308-0.715-2.722-1.483-4.245-2.305
				c-0.105-0.061-0.228-0.098-0.363-0.114c-0.137,0-0.275,0.016-0.412,0.047c-1.262,0.394-2.547,0.759-3.856,1.094
				c-0.137,0.047-0.266,0.107-0.389,0.182c-0.121,0.093-0.212,0.191-0.272,0.298c-0.929,1.551-1.788,2.996-2.58,4.335
				c-0.075,0.107-0.084,0.228-0.021,0.366c0.044,0.121,0.135,0.219,0.272,0.296c0.077,0.047,0.153,0.084,0.228,0.114
				c0.121,0.077,0.251,0.107,0.389,0.091c0.152-0.014,0.266-0.068,0.342-0.158c0.822-0.822,1.672-1.711,2.554-2.671
				c0.654,3.148,1.218,5.856,1.69,8.124c0.014,0.091,0.084,0.158,0.205,0.205c0.121,0.047,0.251,0.053,0.387,0.023
				c0.063-0.016,0.123-0.031,0.184-0.047c0.107-0.03,0.198-0.075,0.272-0.137c0.093-0.075,0.131-0.144,0.114-0.205
				c0.123-1.383,0.228-2.92,0.321-4.608c0.882,1.413,1.681,2.692,2.396,3.833c0.03,0.077,0.098,0.121,0.205,0.137
				c0.091,0.014,0.189,0.007,0.296-0.023c0.061-0.03,0.13-0.053,0.205-0.068c0.123-0.047,0.228-0.123,0.321-0.228
				c0.075-0.107,0.098-0.207,0.068-0.298c-0.638-2.221-1.437-4.875-2.396-7.963c1.218,0.319,2.38,0.617,3.49,0.889
				c0.107,0.016,0.221-0.007,0.342-0.068c0.123-0.061,0.221-0.153,0.298-0.275c0.03-0.044,0.061-0.098,0.091-0.158
				c0.077-0.137,0.098-0.275,0.068-0.412C48.409,43.895,48.34,43.797,48.219,43.736 M39.981,36.686
				c-0.715,0.212-1.255,0.622-1.618,1.232c-0.351,0.608-0.426,1.269-0.228,1.984c0.212,0.685,0.615,1.195,1.208,1.53
				c0.594,0.319,1.232,0.396,1.916,0.228c0.685-0.212,1.194-0.608,1.53-1.187c0.349-0.591,0.449-1.232,0.296-1.916
				c-0.198-0.699-0.585-1.224-1.164-1.574C41.329,36.632,40.682,36.533,39.981,36.686 M49.658,20.05
				c0.044,0.077,0.114,0.137,0.205,0.184c0.044,0.03,0.098,0.061,0.158,0.091c0.077,0.047,0.153,0.077,0.228,0.091
				c0.093,0.016,0.153,0.007,0.184-0.023c0.289-0.258,0.57-0.501,0.843-0.729c1.066,1.49,2.084,3.255,3.059,5.292
				c0.03,0.093,0.098,0.177,0.205,0.251c0.091,0.077,0.167,0.114,0.228,0.114c0.044,0.016,0.084,0.023,0.114,0.023
				c0.044,0,0.084-0.023,0.114-0.068c0.014-0.047,0.007-0.107-0.023-0.184c-0.41-1.185-0.852-2.275-1.323-3.262
				c0.927,1.05,1.802,2.182,2.624,3.399c0.03,0.077,0.084,0.137,0.158,0.182c0.061,0.047,0.114,0.077,0.161,0.093h0.091
				c0.061,0.014,0.091-0.016,0.091-0.093c0-0.06-0.023-0.135-0.068-0.228c-1.157-1.961-2.382-3.695-3.674-5.202
				c0.654,0.396,1.285,0.791,1.893,1.187c0.063,0.044,0.114,0.075,0.161,0.091c0.047,0,0.068-0.016,0.068-0.047V21.17
				c0-0.031-0.021-0.077-0.068-0.137c-0.047-0.077-0.107-0.137-0.182-0.184c-0.792-0.608-1.621-1.192-2.489-1.756l-0.182-0.091
				c-0.061-0.031-0.121-0.054-0.182-0.07c-0.487-0.107-0.989-0.205-1.506-0.296c-0.061-0.016-0.114-0.016-0.161,0
				c-0.03,0-0.053,0.014-0.068,0.044c-0.228,0.366-0.464,0.769-0.708,1.211C49.595,19.936,49.611,19.99,49.658,20.05 M51.255,18.704
				c0.258,0.047,0.41,0.023,0.456-0.068c0.06-0.107,0-0.259-0.184-0.456c-0.182-0.184-0.417-0.358-0.708-0.526
				c-0.272-0.152-0.547-0.258-0.82-0.319c-0.549-0.075-0.67,0.077-0.366,0.456c0.198,0.198,0.449,0.382,0.752,0.547
				C50.691,18.522,50.98,18.643,51.255,18.704 M30.444,16.536c0.319-0.121,0.586-0.251,0.799-0.387
				c0.212-0.153,0.319-0.275,0.319-0.366c-0.014-0.091-0.121-0.13-0.319-0.114c-0.198,0.014-0.449,0.075-0.752,0.182
				c-0.291,0.107-0.54,0.235-0.754,0.389c-0.212,0.137-0.326,0.258-0.342,0.366c-0.014,0.091,0.077,0.128,0.275,0.114
				C29.866,16.72,30.125,16.658,30.444,16.536 M29.166,17.153c-0.669,0.501-1.339,1.064-2.007,1.688
				c-0.061,0.047-0.1,0.091-0.114,0.137c0,0.044,0.023,0.068,0.068,0.068h0.07c0.044,0,0.105-0.023,0.182-0.068
				c0.077-0.031,0.144-0.07,0.205-0.114c0.578-0.456,1.164-0.889,1.758-1.302c-0.259,0.913-0.496,2.03-0.708,3.355
				c-0.016,0.061,0.007,0.098,0.068,0.114c0.077,0.014,0.168,0,0.275-0.047c0.047-0.014,0.091-0.037,0.137-0.068
				c0.075-0.031,0.152-0.077,0.228-0.137c0.061-0.061,0.098-0.114,0.114-0.161c0.319-0.896,0.645-1.702,0.98-2.417
				c0.335,0.471,0.708,1.004,1.118,1.597c0.031,0.03,0.084,0.052,0.161,0.068c0.061,0,0.137-0.016,0.228-0.047
				c0.061-0.014,0.121-0.03,0.182-0.044c0.107-0.047,0.198-0.1,0.275-0.161c0.061-0.075,0.084-0.144,0.068-0.205
				c-0.363-1.064-0.668-1.963-0.913-2.692c0.64-0.063,1.294-0.107,1.963-0.137c0.077,0,0.153-0.016,0.228-0.047
				c0.091-0.03,0.161-0.061,0.205-0.091c0.031-0.03,0.054-0.047,0.07-0.047c0.061-0.044,0.084-0.084,0.068-0.114
				c-0.014-0.03-0.053-0.044-0.114-0.044c-0.791-0.061-1.544-0.084-2.259-0.07c-0.047,0-0.098,0.009-0.161,0.023
				c-0.06,0.016-0.121,0.039-0.182,0.07c-0.624,0.212-1.232,0.44-1.825,0.685c-0.061,0.03-0.13,0.06-0.205,0.091
				C29.28,17.069,29.226,17.107,29.166,17.153"/>
			<path fill-rule="evenodd" clip-rule="evenodd" fill="#E08C37" d="M57.597,44.649c-0.275,0.212-0.517,0.51-0.731,0.889
				c-0.198,0.396-0.303,0.791-0.319,1.187c0,0.38,0.091,0.631,0.275,0.752c0.182,0.121,0.417,0.084,0.708-0.114
				c0.272-0.198,0.501-0.48,0.685-0.845c0.182-0.363,0.28-0.736,0.296-1.118c0-0.38-0.084-0.638-0.251-0.775
				C58.091,44.474,57.872,44.482,57.597,44.649 M27.34,40.381c-0.41,0.137-0.699,0.426-0.866,0.868
				c-0.167,0.44-0.184,0.934-0.047,1.483c0.167,0.547,0.45,0.973,0.845,1.276c0.38,0.305,0.791,0.426,1.232,0.366
				c0.44-0.107,0.752-0.38,0.936-0.822c0.182-0.44,0.198-0.957,0.044-1.551c-0.182-0.594-0.477-1.043-0.889-1.346
				C28.2,40.351,27.782,40.26,27.34,40.381 M55.248,54.757c0.044,0,0.098-0.023,0.158-0.068c0.047-0.016,0.084-0.039,0.114-0.07
				c0.047-0.03,0.1-0.075,0.161-0.135c0.044-0.063,0.084-0.114,0.114-0.161c0.44-0.913,0.859-1.909,1.255-2.99
				c0.044,0.745,0.068,1.422,0.068,2.03c0,0.031,0.016,0.047,0.047,0.047c0.03,0,0.068-0.023,0.114-0.068
				c0.03-0.016,0.061-0.039,0.091-0.07c0.077-0.044,0.137-0.107,0.182-0.182c0.063-0.077,0.1-0.145,0.114-0.205
				c0.275-1.278,0.465-2.769,0.57-4.473c0.382,0.044,0.738,0.084,1.073,0.114c0.047,0,0.091-0.023,0.137-0.07
				c0.044-0.06,0.091-0.128,0.137-0.205c0.014-0.03,0.03-0.061,0.044-0.091c0.047-0.091,0.077-0.175,0.091-0.251
				c0-0.075-0.014-0.121-0.044-0.137c-0.35-0.258-0.738-0.54-1.164-0.843c-0.03-0.016-0.068-0.023-0.114-0.023
				c-0.047,0.016-0.098,0.037-0.161,0.068c-0.486,0.382-1.004,0.754-1.551,1.12c-0.061,0.044-0.121,0.098-0.182,0.158
				c-0.077,0.077-0.131,0.153-0.161,0.228c-0.669,1.127-1.376,2.207-2.121,3.241c-0.063,0.091-0.1,0.175-0.114,0.251
				c0,0.075,0.021,0.121,0.068,0.135c0.03,0.016,0.061,0.023,0.091,0.023c0.047,0.031,0.114,0.023,0.205-0.023
				c0.077-0.044,0.145-0.105,0.207-0.182c0.608-0.701,1.185-1.422,1.732-2.168c-0.319,1.872-0.722,3.499-1.208,4.883
				C55.186,54.703,55.202,54.742,55.248,54.757 M35.008,54.712c0.121,0,0.212-0.039,0.275-0.114
				c0.044-0.077,0.037-0.161-0.023-0.251c-0.701-1.05-1.408-2.207-2.123-3.469c-0.729-1.248-1.444-2.601-2.144-4.061
				c1.127,0.517,2.298,1.004,3.514,1.46c0.123,0.047,0.245,0.053,0.366,0.023c0.137-0.047,0.228-0.114,0.275-0.205
				c0.014-0.047,0.037-0.093,0.068-0.137c0.061-0.107,0.061-0.221,0-0.342c-0.061-0.137-0.152-0.244-0.272-0.319
				c-1.583-0.868-3.08-1.788-4.496-2.761c-0.091-0.077-0.191-0.13-0.296-0.161c-0.107-0.014-0.214-0.014-0.321,0
				c-0.866,0.167-1.695,0.319-2.487,0.456c-0.075,0.016-0.144,0.053-0.205,0.114c-0.061,0.047-0.107,0.114-0.137,0.205
				c-0.396,1.157-0.745,2.238-1.05,3.241c-0.03,0.091-0.021,0.191,0.023,0.296c0.061,0.123,0.137,0.221,0.228,0.298
				c0.047,0.03,0.1,0.068,0.161,0.114c0.075,0.075,0.158,0.114,0.251,0.114c0.091,0,0.158-0.031,0.205-0.091
				c0.38-0.594,0.791-1.225,1.232-1.895c0.943,2.799,1.956,5.225,3.034,7.279c0.047,0.093,0.123,0.168,0.228,0.228
				c0.123,0.063,0.237,0.093,0.342,0.093c0.047,0.014,0.093,0.014,0.137,0c0.091,0,0.161-0.016,0.205-0.047
				c0.047-0.061,0.054-0.121,0.023-0.182c-0.319-1.187-0.645-2.51-0.98-3.972c1.094,1.446,2.175,2.747,3.239,3.902
				c0.077,0.061,0.161,0.114,0.251,0.161c0.107,0.044,0.205,0.061,0.298,0.044C34.886,54.733,34.947,54.726,35.008,54.712
				 M17.575,34.311c-0.153,0.137-0.275,0.366-0.366,0.685c-0.091,0.321-0.13,0.664-0.114,1.027c0.016,0.351,0.077,0.61,0.182,0.778
				c0.107,0.166,0.228,0.198,0.366,0.091c0.153-0.121,0.282-0.358,0.389-0.708c0.091-0.335,0.128-0.692,0.114-1.073
				c0-0.363-0.053-0.622-0.161-0.775C17.864,34.183,17.726,34.176,17.575,34.311 M17.119,37.666
				c-0.198,0.943-0.358,1.863-0.48,2.761c0,0.075,0.007,0.158,0.023,0.251c0.014,0.075,0.03,0.144,0.044,0.205
				c0.031,0.03,0.054,0.061,0.07,0.091c0.014,0.047,0.037,0.061,0.068,0.047c0.031,0,0.053-0.031,0.07-0.093
				c0.121-0.577,0.266-1.171,0.433-1.779c0.212,2.282,0.645,4.517,1.299,6.708c0.031,0.107,0.07,0.191,0.114,0.251
				c0.063,0.077,0.107,0.114,0.137,0.114h0.047c0.03,0,0.053-0.03,0.068-0.091c0.016-0.047,0.016-0.107,0-0.184
				c-0.303-1.339-0.531-2.722-0.685-4.152c0.412,1.353,0.929,2.699,1.553,4.037c0.03,0.077,0.068,0.137,0.114,0.184
				c0.06,0.061,0.105,0.084,0.135,0.068h0.07c0.061,0,0.091-0.044,0.091-0.137c0.016-0.091,0-0.189-0.047-0.296
				c-0.882-2.403-1.513-4.808-1.893-7.211c0.366,0.305,0.769,0.617,1.208,0.936c0.047,0.03,0.093,0.03,0.137,0
				c0.047-0.047,0.077-0.107,0.091-0.182c0.016-0.047,0.023-0.093,0.023-0.137c0.031-0.091,0.039-0.191,0.023-0.298
				c-0.016-0.121-0.047-0.205-0.091-0.249c-0.533-0.624-1.013-1.211-1.439-1.758c-0.03-0.03-0.06-0.053-0.091-0.068
				c-0.044,0-0.084,0.007-0.114,0.021c-0.303,0.245-0.585,0.465-0.843,0.664c-0.031,0.03-0.063,0.068-0.093,0.114
				C17.149,37.545,17.133,37.606,17.119,37.666"/>
			<path fill-rule="evenodd" clip-rule="evenodd" fill="#E08C37" d="M31.038,26.325c-0.503,0.198-0.899,0.503-1.187,0.913
				c-0.303,0.426-0.44,0.861-0.41,1.302c0.061,0.44,0.272,0.752,0.638,0.936c0.382,0.167,0.829,0.158,1.346-0.023
				c0.549-0.228,0.975-0.554,1.278-0.98c0.319-0.442,0.45-0.892,0.389-1.348c-0.091-0.426-0.328-0.706-0.708-0.843
				C31.988,26.127,31.538,26.143,31.038,26.325 M38.135,31.096c-1.597-0.747-3.097-1.416-4.496-2.009
				c-0.091-0.044-0.198-0.068-0.319-0.068c-0.121,0.014-0.235,0.037-0.342,0.068c-1.05,0.382-2.061,0.775-3.036,1.187
				c-0.091,0.03-0.189,0.091-0.296,0.182c-0.091,0.077-0.167,0.167-0.228,0.275c-0.866,1.46-1.658,2.943-2.373,4.45
				c-0.061,0.121-0.084,0.258-0.07,0.41c0.031,0.137,0.093,0.235,0.184,0.298c0.044,0.044,0.091,0.084,0.137,0.114
				c0.091,0.075,0.189,0.098,0.296,0.068c0.107-0.047,0.191-0.114,0.251-0.205c0.685-1.05,1.413-2.084,2.191-3.104
				c0.105,1.765,0.296,3.56,0.57,5.386c0.272,1.84,0.645,3.681,1.118,5.521c0.044,0.153,0.137,0.282,0.272,0.389
				c0.137,0.091,0.275,0.13,0.412,0.114c0.061-0.016,0.121-0.03,0.182-0.047c0.121-0.014,0.214-0.068,0.275-0.158
				c0.075-0.107,0.107-0.221,0.091-0.342c-0.244-2.282-0.35-4.633-0.319-7.05c0.486,1.064,1.011,2.137,1.574,3.216
				c0.563,1.081,1.164,2.147,1.802,3.195c0.077,0.137,0.184,0.228,0.319,0.275c0.137,0.077,0.275,0.098,0.412,0.068
				c0.075-0.03,0.158-0.052,0.251-0.068c0.166-0.03,0.296-0.121,0.387-0.275c0.077-0.166,0.084-0.333,0.023-0.501
				c-0.791-1.963-1.49-3.886-2.1-5.774c-0.608-1.886-1.148-3.681-1.618-5.383c1.201,0.288,2.463,0.608,3.786,0.957
				c0.153,0.047,0.305,0.039,0.456-0.023c0.137-0.044,0.245-0.135,0.321-0.272c0.03-0.047,0.068-0.1,0.114-0.161
				c0.06-0.137,0.075-0.272,0.044-0.41C38.363,31.261,38.27,31.156,38.135,31.096 M44.158,18.019c0.38,0,0.645-0.068,0.799-0.205
				c0.137-0.137,0.128-0.296-0.023-0.48c-0.167-0.182-0.419-0.335-0.752-0.456c-0.335-0.121-0.694-0.182-1.073-0.182
				c-0.366,0.014-0.631,0.084-0.799,0.205c-0.152,0.121-0.167,0.275-0.047,0.456c0.153,0.198,0.405,0.358,0.754,0.48
				C43.383,17.959,43.762,18.019,44.158,18.019 M40.94,20.164c0.03,0.077,0.098,0.131,0.205,0.161
				c0.061,0.03,0.121,0.053,0.184,0.068c0.091,0.031,0.198,0.047,0.319,0.047c0.107-0.016,0.189-0.047,0.251-0.091
				c0.591-0.412,1.162-0.792,1.711-1.141c0.82,1.581,1.681,3.514,2.578,5.795c0.047,0.107,0.13,0.198,0.251,0.275
				c0.137,0.075,0.266,0.114,0.387,0.114c0.063-0.016,0.114-0.023,0.161-0.023c0.107,0,0.182-0.031,0.228-0.091
				c0.061-0.077,0.077-0.153,0.047-0.228c-0.291-1.4-0.594-2.663-0.913-3.788c1.048,1.11,2.105,2.343,3.171,3.695
				c0.044,0.077,0.121,0.145,0.228,0.207c0.107,0.044,0.198,0.068,0.272,0.068h0.161c0.091,0,0.161-0.047,0.205-0.137
				c0.031-0.091,0.016-0.182-0.044-0.272c-1.386-2.222-2.747-4.107-4.086-5.66c0.899,0.305,1.774,0.64,2.624,1.004
				c0.093,0.047,0.177,0.07,0.251,0.07c0.077,0,0.13-0.023,0.161-0.07c0-0.014,0.007-0.03,0.023-0.044
				c0.014-0.047,0-0.107-0.047-0.184c-0.061-0.06-0.137-0.114-0.228-0.158c-1.064-0.578-2.152-1.097-3.262-1.553
				c-0.077-0.044-0.161-0.075-0.251-0.091c-0.077-0.014-0.153-0.023-0.228-0.023c-0.731-0.014-1.469-0.007-2.214,0.023
				c-0.091,0.016-0.167,0.031-0.228,0.047c-0.075,0.03-0.128,0.061-0.158,0.091c-0.549,0.503-1.127,1.073-1.735,1.711
				C40.917,20.029,40.91,20.089,40.94,20.164 M48.859,59.481c0.06-0.016,0.128-0.039,0.205-0.07c0.075-0.03,0.137-0.068,0.182-0.114
				c0.031-0.014,0.053-0.03,0.07-0.044c0.06-0.047,0.091-0.091,0.091-0.137c0-0.016-0.031-0.03-0.091-0.047
				c-0.685,0.016-1.416,0-2.191-0.044H46.94c-0.075,0.014-0.152,0.037-0.228,0.068c-0.699,0.228-1.413,0.426-2.144,0.594
				c-0.075,0.03-0.152,0.061-0.228,0.091c-0.075,0.031-0.137,0.061-0.182,0.091c-0.64,0.456-1.255,0.861-1.849,1.211
				c-0.047,0.03-0.061,0.061-0.047,0.091c0.016,0.016,0.063,0.03,0.137,0.047c0.031,0,0.07,0.007,0.114,0.021
				c0.061,0,0.137-0.007,0.228-0.021c0.077-0.016,0.145-0.031,0.205-0.047c0.533-0.244,1.089-0.517,1.667-0.822
				c0.03,0.319,0.053,0.617,0.068,0.889c0.442-0.091,0.875-0.189,1.302-0.296c0-0.03,0.007-0.053,0.023-0.068
				c0.03,0.014,0.052,0.03,0.068,0.044c0.426-0.121,0.845-0.251,1.255-0.387c-0.107-0.259-0.221-0.549-0.342-0.868
				C47.641,59.618,48.265,59.556,48.859,59.481 M45.664,59.343c0.38-0.107,0.685-0.258,0.913-0.456
				c0.242-0.182,0.356-0.358,0.342-0.524c-0.031-0.168-0.191-0.275-0.48-0.321c-0.305-0.03-0.661,0.009-1.073,0.114
				c-0.41,0.123-0.729,0.275-0.957,0.456c-0.245,0.184-0.342,0.359-0.298,0.526c0.061,0.167,0.235,0.266,0.526,0.296
				C44.926,59.481,45.268,59.45,45.664,59.343"/>
			<path fill-rule="evenodd" clip-rule="evenodd" fill="#E08C37" d="M53.101,25.778c0.305,0,0.496-0.121,0.57-0.366
				c0.077-0.242,0.016-0.547-0.182-0.913c-0.198-0.363-0.472-0.668-0.822-0.913c-0.335-0.242-0.669-0.38-1.004-0.41
				c-0.335-0.016-0.547,0.091-0.638,0.319c-0.107,0.228-0.063,0.526,0.135,0.889c0.214,0.396,0.503,0.724,0.868,0.983
				C52.396,25.626,52.752,25.763,53.101,25.778 M50.82,29.452c0.063,0.137,0.145,0.244,0.251,0.319
				c0.061,0.047,0.121,0.091,0.184,0.137c0.091,0.061,0.182,0.098,0.272,0.114c0.107-0.016,0.184-0.053,0.228-0.114
				c0.426-0.701,0.829-1.353,1.211-1.963c1.034,2.785,1.795,5.751,2.282,8.899c0.014,0.137,0.068,0.251,0.158,0.342
				c0.077,0.077,0.161,0.1,0.251,0.07c0.03-0.016,0.061-0.031,0.091-0.047c0.077-0.03,0.137-0.084,0.184-0.161
				c0.03-0.091,0.044-0.189,0.044-0.296c-0.091-1.856-0.289-3.658-0.594-5.409c0.822,1.614,1.514,3.225,2.077,4.838
				c0.031,0.091,0.077,0.161,0.137,0.205c0.061,0.047,0.114,0.053,0.161,0.023c0.044-0.016,0.084-0.03,0.114-0.047
				c0.06-0.014,0.105-0.084,0.135-0.205c0.031-0.107,0.031-0.221,0-0.342c-0.715-2.782-1.702-5.453-2.966-8.01
				c0.715,0.487,1.392,0.967,2.033,1.439c0.06,0.044,0.121,0.061,0.182,0.044c0.047-0.014,0.077-0.052,0.091-0.114v-0.114
				c0.016-0.075,0-0.166-0.044-0.272c-0.047-0.091-0.1-0.175-0.161-0.251c-0.836-0.806-1.735-1.605-2.692-2.396
				c-0.063-0.047-0.131-0.091-0.207-0.137c-0.075-0.014-0.144-0.03-0.205-0.044h-1.849c-0.075,0-0.135,0.014-0.182,0.044
				c-0.061,0.047-0.098,0.1-0.114,0.161c-0.319,0.913-0.677,1.9-1.073,2.966C50.775,29.224,50.775,29.33,50.82,29.452
				 M29.941,22.744c-0.882-0.198-1.711-0.373-2.487-0.526h-0.182c-0.061,0.031-0.13,0.063-0.205,0.093
				c-0.701,0.349-1.369,0.715-2.009,1.094c-0.061,0.03-0.121,0.077-0.182,0.137c-0.077,0.061-0.137,0.128-0.184,0.205
				c-0.729,0.959-1.429,1.963-2.098,3.013c-0.047,0.091-0.077,0.174-0.091,0.249c0,0.093,0.021,0.145,0.068,0.161
				c0.016,0.016,0.037,0.03,0.068,0.047c0.047,0.03,0.1,0.021,0.161-0.023c0.077-0.047,0.144-0.107,0.205-0.184
				c0.564-0.759,1.157-1.497,1.781-2.212c-0.366,1.993-0.587,4.289-0.664,6.89c0,0.123,0.039,0.214,0.114,0.275
				c0.077,0.047,0.161,0.047,0.251,0c0.031-0.016,0.07-0.037,0.114-0.068c0.077-0.047,0.145-0.114,0.205-0.207
				c0.063-0.091,0.1-0.189,0.114-0.296c0.245-1.704,0.549-3.301,0.913-4.792c0.335,1.141,0.724,2.389,1.164,3.742
				c0.031,0.077,0.084,0.13,0.161,0.161c0.091,0.03,0.175,0.023,0.251-0.023c0.06-0.03,0.121-0.053,0.182-0.068
				c0.121-0.063,0.221-0.161,0.296-0.298c0.077-0.137,0.107-0.258,0.093-0.366c-0.412-2.433-0.678-4.533-0.799-6.296
				c0.699,0,1.429,0.021,2.189,0.068c0.093-0.016,0.184-0.037,0.275-0.068c0.107-0.063,0.191-0.131,0.251-0.207
				c0.03-0.03,0.061-0.068,0.091-0.114c0.077-0.075,0.107-0.152,0.091-0.228C30.078,22.827,30.034,22.774,29.941,22.744
				 M26.29,21.077c-0.333,0.184-0.615,0.412-0.843,0.685c-0.244,0.259-0.389,0.51-0.433,0.754c-0.031,0.242,0.052,0.387,0.249,0.433
				c0.198,0.03,0.465-0.047,0.799-0.228c0.366-0.198,0.678-0.433,0.936-0.708c0.244-0.289,0.382-0.554,0.412-0.799
				c0.014-0.212-0.084-0.335-0.298-0.366C26.9,20.818,26.626,20.895,26.29,21.077 M37.883,52.293
				c-0.517,0.091-0.889,0.282-1.118,0.57c-0.228,0.289-0.267,0.608-0.114,0.957c0.182,0.335,0.486,0.594,0.913,0.778
				c0.44,0.166,0.913,0.219,1.413,0.158c0.503-0.091,0.875-0.272,1.118-0.547c0.259-0.289,0.328-0.608,0.207-0.959
				c-0.153-0.349-0.456-0.615-0.913-0.799C38.933,52.27,38.43,52.216,37.883,52.293 M44.363,56.263
				c0.107-0.047,0.191-0.098,0.251-0.161l0.091-0.091c0.061-0.061,0.084-0.121,0.068-0.182c-0.03-0.077-0.091-0.121-0.182-0.137
				c-1.125-0.275-2.312-0.608-3.56-1.004c-0.075-0.047-0.175-0.07-0.296-0.07c-0.107,0-0.205,0.009-0.298,0.023
				c-0.957,0.198-1.9,0.35-2.829,0.456c-0.107,0-0.198,0.023-0.272,0.07c-0.093,0.03-0.153,0.075-0.184,0.135
				c-0.608,0.685-1.178,1.325-1.711,1.919c-0.044,0.03-0.053,0.084-0.023,0.158c0.063,0.061,0.137,0.107,0.228,0.137
				c0.047,0.03,0.1,0.053,0.161,0.068c0.091,0.047,0.191,0.07,0.296,0.07c0.107,0,0.184-0.023,0.228-0.07
				c0.564-0.333,1.15-0.715,1.758-1.141c0.563,1.462,1.073,2.687,1.53,3.674c0.03,0.047,0.091,0.077,0.182,0.091
				c0.091,0.031,0.182,0.039,0.275,0.023c0.044,0,0.091-0.007,0.135-0.023c0.077,0,0.145-0.014,0.207-0.044
				c0.06-0.031,0.084-0.061,0.068-0.091c0.016-0.594,0.03-1.271,0.047-2.033c0.699,0.654,1.36,1.225,1.984,1.711
				c0.031,0.031,0.084,0.047,0.161,0.047c0.091,0,0.175-0.007,0.251-0.023c0.044,0,0.098-0.007,0.158-0.023
				c0.091-0.014,0.167-0.044,0.228-0.091c0.061-0.061,0.084-0.107,0.07-0.137c-0.624-0.957-1.348-2.159-2.168-3.604
				c0.973,0.167,1.923,0.289,2.852,0.366C44.158,56.3,44.256,56.293,44.363,56.263"/>
		</g>
		<g>
			<path fill="#194052" d="M70.266,25.804v6.517h-1.454v-18.85c2.747,0,5.52,0,8.267,0c8.186,0,8.186,12.333,0,12.333H70.266z
				 M70.266,14.818v9.667h6.813c6.274,0,6.274-9.667,0-9.667H70.266z"/>
			<path fill="#194052" d="M87.498,13.471v18.85h-1.32v-18.85H87.498z"/>
			<path fill="#194052" d="M103.977,19.019c0,4.443,0,8.859,0,13.302h-1.319v-2.828c-1.293,2.073-3.285,3.043-5.44,3.043
				c-3.716,0-6.759-2.801-6.759-6.867c0-4.066,3.043-6.813,6.759-6.813c2.154,0,4.335,0.996,5.44,3.07v-2.908H103.977z
				 M91.779,25.67c0,3.339,2.424,5.574,5.439,5.574c7.405,0,7.405-11.121,0-11.121C94.202,20.123,91.779,22.331,91.779,25.67z"/>
			<path fill="#194052" d="M108.849,19.019v2.37c1.023-1.831,2.881-2.585,4.739-2.612c3.555,0,6.005,2.181,6.005,5.87v7.674h-1.319
				v-7.648c0-3.016-1.858-4.632-4.74-4.605c-2.747,0.027-4.659,2.1-4.659,4.847v7.405h-1.319V19.019H108.849z"/>
			<path fill="#194052" d="M122.285,25.67c0-3.985,3.016-6.867,6.759-6.867c3.743,0,7.082,2.289,6.57,7.486h-11.983
				c0.27,3.124,2.666,4.928,5.413,4.928c1.751,0,3.797-0.7,4.793-2.02l0.943,0.754c-1.292,1.696-3.608,2.558-5.736,2.558
				C125.301,32.509,122.285,29.897,122.285,25.67z M134.429,25.131c-0.027-3.285-2.182-5.116-5.386-5.116
				c-2.747,0-5.116,1.858-5.413,5.116H134.429z"/>
			<path fill="#194052" d="M151.823,19.019c0,4.443,0,8.859,0,13.302h-1.32v-2.828c-1.292,2.073-3.285,3.043-5.439,3.043
				c-3.716,0-6.759-2.801-6.759-6.867c0-4.066,3.043-6.813,6.759-6.813c2.154,0,4.335,0.996,5.439,3.07v-2.908H151.823z
				 M139.625,25.67c0,3.339,2.424,5.574,5.44,5.574c7.405,0,7.405-11.121,0-11.121C142.048,20.123,139.625,22.331,139.625,25.67z"/>
			<path fill="#194052" d="M165.474,32.402h-3.689l-7.836-18.931h3.986l5.682,14.676l5.709-14.676h3.986L165.474,32.402z"/>
			<path fill="#194052" d="M174.882,18.955V32.19h3.195V18.955H174.882z"/>
			<path fill="#194052" d="M194.742,13.498v18.823h-3.07l-0.216-1.831c-1.023,1.589-2.666,2.127-4.282,2.127
				c-3.904,0-6.84-2.585-6.84-6.947c0-4.578,2.881-6.947,6.759-6.947c1.4,0,3.581,0.754,4.362,2.127v-7.351H194.742z M183.621,25.67
				c0,2.316,1.669,3.904,3.77,3.904c2.073,0,3.851-1.508,3.851-3.904c0-2.316-1.777-3.878-3.851-3.878
				C185.29,21.792,183.621,23.273,183.621,25.67z"/>
			<path fill="#194052" d="M208.123,19.045h3.15v13.275h-3.096l-0.162-1.939c-0.754,1.562-2.827,2.316-4.308,2.343
				c-3.932,0.027-6.84-2.397-6.84-7.055c0-4.578,3.043-6.974,6.921-6.947c1.777,0,3.474,0.835,4.228,2.154L208.123,19.045z
				 M200.153,25.67c0,2.531,1.75,4.039,3.932,4.039c5.17,0,5.17-8.051,0-8.051C201.903,21.658,200.153,23.138,200.153,25.67z"/>
		</g>
		<g>
			<path fill="#194052" d="M98.262,50.547c-1.643,2.19-4.263,5.163-5.828,6.102c-0.587,0.352-1.017,0.469-1.447-0.039
				c-1.408-1.721,1.799-8.214,2.269-8.996c0.587-0.039,1.604,0.548,2.034,0.9c-0.821,1.447-3.246,5.359-3.442,7.549
				c-0.039,0.431,0.196,0.47,0.743,0.039c1.173-0.939,3.872-3.794,5.319-5.984L98.262,50.547z"/>
			<path fill="#194052" d="M111.13,50c-1.682,2.229-4.263,5.163-5.828,6.102c-0.587,0.352-1.056,0.469-1.486-0.039
				c-1.173-1.486,1.173-6.806,2.229-9.035c-1.799,1.799-5.476,7.744-6.102,9.348c-0.274-0.039-0.509-0.313-0.704-0.743
				c0-1.76,2.112-6.219,3.364-8.723c-1.76,1.76-5.554,7.784-6.18,9.466c-0.274-0.039-0.821-0.352-0.939-0.626
				c0-1.995,1.76-6.024,2.816-8.331c0.274,0,1.486,0.587,1.565,0.861c-0.978,1.565-1.995,3.599-2.738,5.476
				c1.682-2.973,4.772-7.275,5.828-7.588c0.43-0.039,1.095,0.509,1.213,0.782c-1.056,1.604-2.464,4.342-3.364,6.689
				c1.565-3.012,4.576-7.353,5.711-7.471c0.509-0.039,1.369,0.352,1.838,0.704c-0.9,1.408-3.442,6.532-3.638,8.644
				c-0.039,0.509,0.196,0.509,0.743,0.039c1.173-0.939,3.833-3.794,5.28-5.984L111.13,50z"/>
			<path fill="#194052" d="M119.266,50.313c-1.291,0-1.408-1.799-1.526-2.934c-0.939,2.112-2.816,5.828-4.967,7.236
				c-1.447,0.9-2.699,0.235-2.973-1.134c-1.369,2.973-2.542,6.102-3.012,7.94c-0.43,0.039-1.134-0.391-1.252-0.586
				c0.782-4.068,4.029-12.634,5.867-14.629c0.508,0,1.486,0.391,1.838,0.822c0.978-0.9,2.112-1.565,3.168-1.565
				c0.587,0.196,1.213,0.586,1.643,1.213c0.196,0.469,0.196,3.442,1.213,3.246V50.313z M116.215,46.049
				c-1.838,0.313-4.068,2.855-4.928,4.224l-0.235,0.469c-1.056,3.207-0.195,5.281,1.526,3.129
				C113.947,52.073,115.59,47.927,116.215,46.049z"/>
			<path fill="#194052" d="M127.207,50.196l0.47,0.43c-1.213,1.33-4.42,3.56-5.711,5.241c-0.469,0.039-1.252-0.196-1.721-0.548
				c0.117-1.213,0.469-2.973,0.978-4.577c-1.251,2.425-2.973,5.398-4.029,5.594c-0.586-0.156-1.369-0.861-1.799-1.486
				c0.782-2.034,5.007-9.622,8.253-8.37c1.486,0.548,1.173,2.777-0.313,2.777c0.665-0.861,0.626-2.425,0.117-2.621
				c-1.995-0.626-4.889,6.18-5.946,8.879c1.526-1.33,3.834-6.141,4.85-7.588c0.313,0,0.861,0.196,1.017,0.469
				c-0.665,1.408-1.173,4.616-1.369,6.493c1.251-1.447,3.872-3.325,5.241-4.693H127.207z"/>
			<path fill="#194052" d="M135.891,50.547c-0.743,2.347-5.867,5.789-8.136,5.789c-1.33,0-2.895-1.095-2.895-2.112
				c0-3.363,5.398-9.191,7.745-7.94c0.743,0.313,1.251,1.721,0.313,2.66c-0.156-0.039-0.587-0.509-0.587-0.626
				c0.431-0.431,0.704-1.447,0.274-1.721c-1.448-0.821-6.923,7.51-5.672,9.075c0.899,1.095,7.471-2.738,8.488-5.437L135.891,50.547z
				"/>
			<path fill="#194052" d="M141.836,43.233c-0.274,0.313-1.095,0.352-2.151,0.352c-2.66,4.537-7.08,12.869-5.359,13.964
				c0.939,0.626,4.85-4.459,5.476-6.65l0.548,0.391c-1.056,2.347-4.498,7.706-6.298,6.767c-2.973-1.408,0.783-9.505,3.56-14.433
				c-0.9,0.039-1.643,0.117-2.073,0.469l-0.195-0.391c0.508-0.43,1.526-0.586,2.621-0.743c0.743-1.252,1.291-2.268,1.721-2.855
				c0.587,0.156,1.291,0.548,1.564,0.978c-0.274,0.352-0.626,0.939-1.056,1.682c0.782-0.117,1.369-0.196,1.525-0.352
				C141.836,42.568,141.876,42.959,141.836,43.233z"/>
			<path fill="#194052" d="M148.134,50.196l0.47,0.43c-1.213,1.33-4.42,3.56-5.711,5.241c-0.469,0.039-1.252-0.196-1.721-0.548
				c0.117-1.213,0.469-2.973,0.978-4.577c-1.251,2.425-2.973,5.398-4.029,5.594c-0.587-0.156-1.369-0.861-1.799-1.486
				c0.782-2.034,5.007-9.622,8.253-8.37c1.486,0.548,1.173,2.777-0.313,2.777c0.665-0.861,0.626-2.425,0.117-2.621
				c-1.995-0.626-4.889,6.18-5.946,8.879c1.526-1.33,3.834-6.141,4.85-7.588c0.313,0,0.861,0.196,1.017,0.469
				c-0.665,1.408-1.173,4.616-1.369,6.493c1.251-1.447,3.872-3.325,5.241-4.693H148.134z"/>
			<path fill="#194052" d="M157.873,50.039c-1.682,2.19-4.264,5.202-5.828,6.141c-0.586,0.313-1.056,0.43-1.486-0.078
				c-1.173-1.369,1.135-6.884,2.269-9.035c-1.76,1.76-5.594,7.823-6.102,9.348c-0.274-0.039-0.821-0.352-0.939-0.626
				c0-1.956,1.682-6.063,2.816-8.292c0.196-0.078,1.486,0.586,1.565,0.861c-1.056,1.604-2.19,3.833-2.855,5.75
				c1.564-3.051,4.733-7.706,5.945-7.901c0.508-0.039,1.408,0.352,1.838,0.704c-0.899,1.408-3.442,6.532-3.638,8.683
				c-0.039,0.431,0.156,0.509,0.743,0c1.173-0.978,3.833-3.755,5.28-5.945L157.873,50.039z"/>
			<path fill="#194052" d="M161.746,50.078c-0.822,2.973-1.252,5.789-0.939,7.549c-0.274,0.196-1.682,0.509-1.878,0.313
				c-0.195-1.095-0.078-2.621,0.274-4.342c-1.095,1.134-2.464,2.112-3.677,2.112c-0.665-0.196-1.213-0.587-1.643-1.213
				c0.704-1.526,2.855-6.454,5.28-7.94c0.9-0.586,1.643-0.509,2.151-0.078c1.447-3.833,3.364-7.314,4.772-8.214
				c1.095-0.743,2.621-0.313,2.425,0.861C168.083,40.925,164.249,46.519,161.746,50.078z M159.438,52.464
				c0.431-1.76,1.017-3.598,1.682-5.515c-0.196-0.743-0.821-0.782-1.76,0.352c-1.447,1.76-3.012,5.984-3.638,7.823
				C156.974,54.928,158.382,53.677,159.438,52.464z M162.255,48.357c2.19-3.207,5.241-7.823,5.789-9.31
				c0.196-0.509-0.274-1.173-1.095-0.352C165.423,40.339,163.506,44.329,162.255,48.357z"/>
			<path fill="#194052" d="M172.581,49.804c-0.743,0.9-2.308,1.643-3.677,1.682c-1.056,2.229-2.543,4.185-3.677,4.185
				c-1.252,0-2.855-1.017-2.855-2.112c0-3.403,5.241-8.996,7.706-7.901c0.626,0.313,0.313,1.721,0.196,2.151
				c-0.196,0.978-0.587,2.151-1.173,3.285c1.212-0.156,2.621-0.861,3.246-1.526L172.581,49.804z M168.122,51.408
				c-0.352-0.078-0.626-0.234-0.861-0.469c-0.587-0.509-0.743-1.291-0.469-2.19c-1.721,2.347-3.207,5.437-2.386,6.258
				C165.11,55.711,166.753,53.755,168.122,51.408z M169.373,46.049c-1.33,0.704-2.855,3.677-1.916,4.733
				c0.195,0.196,0.469,0.313,0.821,0.352c1.291-2.347,2.268-4.615,1.799-5.202C169.921,45.815,169.686,45.854,169.373,46.049z"/>
			<path fill="#194052" d="M186.037,46.753c-0.313,2.034-7.119,7.784-7.745,9.622c-0.274-0.039-0.821-0.313-0.939-0.587
				c0-2.034,1.447-6.102,2.503-8.41c0.235-0.078,1.799,0.704,1.878,0.939c-1.252,2.073-2.738,4.928-3.286,7.158
				c1.565-2.582,6.963-7.745,6.845-9.74C185.607,45.854,185.88,46.323,186.037,46.753z"/>
			<path fill="#194052" d="M190.847,50.547c-1.643,2.19-4.263,5.163-5.828,6.102c-0.586,0.352-1.017,0.469-1.447-0.039
				c-1.408-1.721,1.799-8.214,2.268-8.996c0.587-0.039,1.604,0.548,2.034,0.9c-0.821,1.447-3.246,5.359-3.442,7.549
				c-0.039,0.431,0.196,0.47,0.743,0.039c1.173-0.939,3.872-3.794,5.319-5.984L190.847,50.547z"/>
			<path fill="#194052" d="M195.15,50.078c-0.821,2.973-1.252,5.789-0.939,7.549c-0.274,0.196-1.682,0.509-1.878,0.313
				c-0.195-1.095-0.078-2.621,0.274-4.342c-1.095,1.134-2.464,2.112-3.677,2.112c-0.665-0.196-1.213-0.587-1.643-1.213
				c0.704-1.526,2.855-6.454,5.28-7.94c0.9-0.586,1.643-0.509,2.151-0.078c1.447-3.833,3.364-7.314,4.772-8.214
				c1.095-0.743,2.621-0.313,2.425,0.861C201.487,40.925,197.653,46.519,195.15,50.078z M192.842,52.464
				c0.431-1.76,1.017-3.598,1.682-5.515c-0.195-0.743-0.821-0.782-1.76,0.352c-1.447,1.76-3.012,5.984-3.638,7.823
				C190.378,54.928,191.786,53.677,192.842,52.464z M195.659,48.357c2.19-3.207,5.241-7.823,5.789-9.31
				c0.196-0.509-0.274-1.173-1.095-0.352C198.827,40.339,196.91,44.329,195.659,48.357z"/>
			<path fill="#194052" d="M207.08,50.196l0.47,0.43c-1.213,1.33-4.42,3.56-5.711,5.241c-0.469,0.039-1.252-0.196-1.721-0.548
				c0.117-1.213,0.469-2.973,0.978-4.577c-1.251,2.425-2.973,5.398-4.029,5.594c-0.586-0.156-1.369-0.861-1.799-1.486
				c0.782-2.034,5.007-9.622,8.253-8.37c1.486,0.548,1.173,2.777-0.313,2.777c0.665-0.861,0.626-2.425,0.117-2.621
				c-1.995-0.626-4.889,6.18-5.946,8.879c1.526-1.33,3.834-6.141,4.85-7.588c0.313,0,0.861,0.196,1.017,0.469
				c-0.665,1.408-1.173,4.616-1.369,6.493c1.251-1.447,3.872-3.325,5.241-4.693H207.08z"/>
			<path fill="#194052" d="M209.935,47.066c0.43-1.33-1.721-1.682-2.23-0.195c-0.626,1.799,2.151,5.867,1.956,7.744
				c-0.117,1.408-2.738,2.582-3.872,2.269c-0.665-0.235-1.448-0.665-0.821-2.034c0.274-0.118,1.095-0.431,1.291-0.235
				c-0.508,0.9-0.548,1.565-0.156,1.917c0.508,0.313,1.799-0.821,1.799-1.291c0.196-1.916-2.151-6.297-1.213-8.136
				c0.431-0.9,1.291-1.721,2.503-1.565c2.269,0.313,1.995,3.286,0.352,3.912c-0.156-0.039-0.782-0.743-0.782-0.939
				C209.271,48.24,209.74,47.692,209.935,47.066z"/>
		</g>
		<path fill="#E08C37" d="M178.746,15.303c0,1.128-0.914,2.042-2.042,2.042s-2.042-0.914-2.042-2.042s0.914-2.042,2.042-2.042
			S178.746,14.175,178.746,15.303z"/>
		<path fill="#E08C37" d="M94.624,46.193c0.509-1.056,1.33-4.029,1.33-4.772c0.821,0.039,1.721,0.586,1.917,1.213
			c-0.313,0.899-1.447,3.051-2.386,4.107C95.211,46.701,94.82,46.467,94.624,46.193z"/>
		<path fill="#E08C37" d="M187.21,45.736c0.509-1.056,1.33-4.029,1.33-4.772c0.821,0.039,1.721,0.586,1.917,1.213
			c-0.313,0.899-1.448,3.051-2.386,4.107C187.797,46.245,187.405,46.01,187.21,45.736z"/>
	</g>
</g>
</svg>
