<?xml version="1.0" encoding="utf-8"?>
<!-- Generator: Adobe Illustrator 22.1.0, SVG Export Plug-In . SVG Version: 6.00 Build 0)  -->
<svg version="1.1" id="Layer_1" xmlns="http://www.w3.org/2000/svg" xmlns:xlink="http://www.w3.org/1999/xlink" x="0px" y="0px"
	 width="35px" height="25px" viewBox="0 0 35 25" enable-background="new 0 0 35 25" xml:space="preserve">
<g>
	<path fill="none" stroke="#194052" stroke-width="1.8" stroke-miterlimit="10" d="M9.691,11.524l-3.905,5.857v5.206H17.5"/>
	<path fill="none" stroke="#194052" stroke-width="1.8" stroke-miterlimit="10" d="M25.309,11.524l3.905,5.857v5.206H17.5"/>
	<ellipse fill="none" stroke="#194052" stroke-width="1.8" stroke-miterlimit="10" cx="17.5" cy="14.452" rx="3.905" ry="3.579"/>
	<path fill="none" stroke="#194052" stroke-width="1.8" stroke-miterlimit="10" d="M17.5,2.413c-8.46,0-13.395,3.145-14.968,4.555
		c0.443,2.349,1.193,3.905,1.952,5.206c2.034-0.027,4.557-0.503,6.508-1.302V7.619c0.705-0.407,2.861-1.302,6.508-1.302
		c3.647,0,5.803,0.895,6.508,1.302v3.254c1.951,0.798,4.474,1.274,6.508,1.302c0.759-1.302,1.509-2.857,1.952-5.206
		C30.895,5.558,25.96,2.413,17.5,2.413z"/>
</g>
</svg>
