<?xml version="1.0" encoding="utf-8"?>
<!-- Generator: Adobe Illustrator 22.1.0, SVG Export Plug-In . SVG Version: 6.00 Build 0)  -->
<svg version="1.1" id="Layer_1" xmlns="http://www.w3.org/2000/svg" xmlns:xlink="http://www.w3.org/1999/xlink" x="0px" y="0px"
	 width="35px" height="25px" viewBox="0 0 35 25" enable-background="new 0 0 35 25" xml:space="preserve">
<g>
	<path fill="#194052" d="M6.5,23.553l1.554-5.676c-0.959-1.661-1.463-3.546-1.462-5.476C6.594,6.361,11.508,1.447,17.546,1.447
		c2.93,0.001,5.681,1.142,7.749,3.213c2.068,2.07,3.206,4.823,3.205,7.75c-0.002,6.04-4.917,10.954-10.954,10.954c0,0,0,0,0,0
		h-0.004c-1.833-0.001-3.635-0.461-5.235-1.333L6.5,23.553z M12.576,20.047l0.332,0.197c1.398,0.83,3,1.268,4.634,1.269h0.004
		c5.018,0,9.102-4.084,9.104-9.104c0.001-2.433-0.945-4.72-2.664-6.441c-1.719-1.721-4.005-2.669-6.437-2.67
		c-5.022,0-9.106,4.084-9.108,9.104c-0.001,1.72,0.481,3.396,1.392,4.845l0.216,0.344l-0.92,3.36L12.576,20.047z"/>
	<path fill-rule="evenodd" clip-rule="evenodd" fill="#194052" d="M23.065,15.014c-0.068-0.114-0.251-0.183-0.525-0.319
		c-0.274-0.137-1.619-0.799-1.87-0.891c-0.251-0.091-0.433-0.137-0.616,0.137c-0.182,0.274-0.707,0.89-0.867,1.073
		c-0.16,0.183-0.319,0.206-0.593,0.069c-0.274-0.137-1.156-0.426-2.201-1.359c-0.814-0.726-1.363-1.622-1.523-1.896
		c-0.16-0.274-0.017-0.422,0.12-0.559c0.123-0.123,0.274-0.32,0.411-0.479c0.137-0.16,0.182-0.274,0.274-0.457
		c0.091-0.183,0.046-0.343-0.023-0.479c-0.068-0.137-0.616-1.484-0.844-2.032c-0.222-0.534-0.448-0.462-0.616-0.47
		c-0.159-0.008-0.342-0.01-0.525-0.01c-0.182,0-0.479,0.069-0.73,0.342C12.687,7.958,11.98,8.62,11.98,9.968
		c0,1.347,0.981,2.649,1.118,2.831c0.137,0.183,1.93,2.947,4.676,4.133c0.653,0.282,1.163,0.45,1.56,0.576
		c0.656,0.208,1.252,0.179,1.724,0.108c0.526-0.079,1.619-0.662,1.847-1.302C23.133,15.676,23.133,15.128,23.065,15.014z"/>
</g>
</svg>
